<svg width="50" height="50" viewBox="0 0 50 50" fill="none" xmlns="http://www.w3.org/2000/svg">
<path d="M14.183 45.1517C12.703 45.1517 11.498 43.9467 11.498 42.4667C11.498 40.9867 12.6997 39.785 14.1764 39.78H14.183C15.663 39.78 16.868 40.985 16.868 42.4667C16.868 43.9483 15.663 45.1517 14.183 45.1517ZM14.178 41.2667C13.5214 41.2683 12.9847 41.8067 12.9847 42.4667C12.9847 43.1267 13.523 43.6667 14.1847 43.6667C14.8464 43.6667 15.3847 43.1283 15.3847 42.4667C15.3847 41.805 14.8464 41.2667 14.1847 41.2667H14.1797H14.178Z" fill="#003EDE"/>
<path d="M25.9291 45.1517C24.4491 45.1517 23.2441 43.9467 23.2441 42.4667C23.2441 40.9867 24.4458 39.785 25.9225 39.78H25.9291C27.4091 39.78 28.6141 40.985 28.6141 42.4667C28.6141 43.9483 27.4091 45.1517 25.9291 45.1517ZM25.9225 41.2667C25.2658 41.2683 24.7291 41.8067 24.7291 42.4667C24.7291 43.1267 25.2675 43.6667 25.9291 43.6667C26.5908 43.6667 27.1291 43.1283 27.1291 42.4667C27.1291 41.805 26.5908 41.2667 25.9291 41.2667H25.9241H25.9225Z" fill="#003EDE"/>
<path d="M47.4078 14.5267H41.8078C41.0844 14.5267 40.4961 13.8817 40.4961 13.0884V11.05C40.4961 10.2567 41.0844 9.61169 41.8078 9.61169H47.4078C48.1311 9.61169 48.7194 10.2567 48.7194 11.05V13.0884C48.7194 13.8817 48.1311 14.5267 47.4078 14.5267ZM41.9828 13.04H47.2328V11.0967H41.9828V13.04Z" fill="#003EDE"/>
<path d="M47.5796 14.6717H41.9796C41.2563 14.6717 40.668 14.0267 40.668 13.2333V11.195C40.668 10.4017 41.2563 9.75668 41.9796 9.75668H47.5796C48.303 9.75668 48.8913 10.4017 48.8913 11.195V13.2333C48.8913 14.0267 48.303 14.6717 47.5796 14.6717ZM42.1546 13.185H47.4046V11.2417H42.1546V13.185Z" fill="#003EDE"/>
<path d="M3.96599 41.6117C3.55599 41.6117 3.22266 41.2783 3.22266 40.8683V38.325C3.22266 37.1417 4.18599 36.1783 5.36932 36.1783H33.8427C34.1643 36.1783 34.4377 35.9483 34.4943 35.6317L38.4477 13.1817C38.6293 12.1533 39.5177 11.4067 40.5627 11.4067H41.2377C41.6477 11.4067 41.981 11.74 41.981 12.15C41.981 12.56 41.6477 12.8933 41.2377 12.8933H40.5627C40.241 12.8933 39.9677 13.1233 39.911 13.44L35.9577 35.8917C35.776 36.92 34.8877 37.6667 33.8427 37.6667H5.36932C5.00432 37.6667 4.70766 37.9633 4.70766 38.3283V40.8717C4.70766 41.2817 4.37432 41.615 3.96432 41.615L3.96599 41.6117Z" fill="#003EDE"/>
<path d="M31.6803 34.865C31.5736 34.865 31.4653 34.8534 31.3586 34.8317L4.09528 29.2417C3.46194 29.1117 2.97528 28.6184 2.85528 27.9834L0.861943 17.4234C0.773609 16.9584 0.896943 16.4817 1.19861 16.1167C1.50028 15.7517 1.94528 15.5434 2.41861 15.5434H7.97694C8.38694 15.5434 8.72028 15.8767 8.72028 16.2867C8.72028 16.6967 8.38694 17.03 7.97694 17.03H2.41861C2.38694 17.03 2.36194 17.0417 2.34194 17.0667C2.32194 17.09 2.31528 17.1184 2.32028 17.1484L4.31361 27.7084C4.32194 27.7484 4.35194 27.7784 4.39194 27.7867L31.6553 33.3767C31.6819 33.3817 31.7069 33.3767 31.7303 33.3617C31.7536 33.3467 31.7669 33.325 31.7719 33.2984L34.8219 17.1467C34.8269 17.1167 34.8219 17.0884 34.8003 17.065C34.7803 17.0417 34.7553 17.0284 34.7236 17.0284H29.2336C28.8236 17.0284 28.4903 16.695 28.4903 16.285C28.4903 15.875 28.8236 15.5417 29.2336 15.5417H34.7236C35.1969 15.5417 35.6419 15.75 35.9436 16.115C36.2453 16.48 36.3686 16.955 36.2803 17.4217L33.2303 33.5734C33.1503 33.9934 32.9119 34.3567 32.5553 34.595C32.2903 34.7734 31.9869 34.865 31.6753 34.865H31.6803Z" fill="#003EDE"/>
<path fill-rule="evenodd" clip-rule="evenodd" d="M27.4043 17.4983C27.2743 17.0117 26.9627 16.605 26.526 16.3533C26.3127 16.23 26.1343 16.0517 26.011 15.8367C25.8877 15.6233 25.8227 15.38 25.8227 15.1317C25.8227 14.8833 25.8877 14.64 26.011 14.4267C26.1343 14.2117 26.3127 14.0333 26.5277 13.91C27.4277 13.39 27.7377 12.235 27.2177 11.3367L26.181 9.54168C25.9293 9.10668 25.5227 8.79501 25.036 8.66335C24.876 8.62001 24.7127 8.59835 24.5477 8.59835C24.2177 8.59835 23.8927 8.68501 23.606 8.85001C23.3927 8.97335 23.1493 9.03835 22.9027 9.03835C22.656 9.03835 22.4127 8.97335 22.1993 8.85001C21.986 8.72668 21.8077 8.54835 21.6843 8.33501C21.561 8.12168 21.4943 7.87835 21.4943 7.63001C21.4943 6.59001 20.6477 5.74335 19.6077 5.74335H17.5377C16.4977 5.74335 15.6527 6.59001 15.6527 7.63001C15.6527 7.87668 15.586 8.12001 15.4627 8.33335C15.3393 8.54668 15.161 8.72501 14.9477 8.84835C14.7343 8.97168 14.491 9.03668 14.2427 9.03668C13.996 9.03668 13.7527 8.97168 13.5393 8.84835C13.2527 8.68335 12.9277 8.59668 12.5977 8.59668C12.4327 8.59668 12.2693 8.61835 12.1093 8.66168C11.6227 8.79168 11.216 9.10335 10.966 9.53835L9.93101 11.3333C9.67934 11.77 9.61267 12.2767 9.74267 12.7633C9.87267 13.25 10.1843 13.6567 10.621 13.9083C10.8343 14.0317 11.0127 14.21 11.136 14.425C11.2593 14.6383 11.3243 14.8817 11.3243 15.1283C11.3243 15.375 11.2593 15.6183 11.136 15.8333C11.0127 16.0467 10.8343 16.225 10.621 16.35C10.1843 16.6017 9.87434 17.0083 9.74267 17.495C9.61267 17.9817 9.67934 18.4883 9.92934 18.925L10.966 20.72C11.2177 21.155 11.6243 21.4667 12.111 21.5983C12.2693 21.6417 12.4343 21.6633 12.5993 21.6633C12.9293 21.6633 13.256 21.5767 13.541 21.4117C13.7543 21.2883 13.9977 21.2233 14.2443 21.2233C14.491 21.2233 14.7343 21.2883 14.9477 21.4117C15.161 21.535 15.3393 21.7133 15.4627 21.9267C15.586 22.14 15.651 22.3833 15.6527 22.6317C15.6527 23.135 15.8493 23.6083 16.2043 23.965C16.561 24.3217 17.0343 24.5183 17.5377 24.5183H19.6077C20.6477 24.5183 21.4927 23.6717 21.4927 22.6317C21.4927 22.385 21.5593 22.1417 21.6827 21.9283C21.806 21.715 21.9843 21.5367 22.1977 21.4133C22.411 21.29 22.6543 21.225 22.9027 21.225C23.1493 21.225 23.3927 21.29 23.606 21.4133C23.8927 21.5783 24.2177 21.665 24.5477 21.665C24.7127 21.665 24.876 21.6433 25.036 21.6C25.5227 21.47 25.9293 21.1583 26.181 20.7217L27.2177 18.9283C27.4693 18.4917 27.536 17.985 27.4043 17.4983ZM26.076 18.27L25.0393 20.0667C24.9627 20.1967 24.841 20.29 24.696 20.3283C24.6477 20.3417 24.5977 20.3483 24.5477 20.3483C24.4493 20.3483 24.3527 20.3233 24.2643 20.2733C23.8393 20.0283 23.3827 19.9033 22.906 19.9033C22.2093 19.9033 21.516 20.1833 21.006 20.6717C20.471 21.185 20.176 21.88 20.176 22.63C20.176 22.7817 20.1177 22.925 20.011 23.0317C19.9043 23.14 19.761 23.1983 19.6077 23.2H17.5377C17.386 23.2 17.2427 23.14 17.1343 23.0333C17.0277 22.9283 16.9677 22.78 16.9677 22.63C16.9677 21.8783 16.6727 21.1817 16.1377 20.67C15.6277 20.1817 14.9343 19.9017 14.2377 19.9017C13.761 19.9017 13.3043 20.0267 12.8777 20.2717C12.791 20.3217 12.6943 20.3467 12.596 20.3467C12.546 20.3467 12.496 20.34 12.4477 20.3267C12.301 20.2883 12.1793 20.1933 12.1027 20.0617L11.0677 18.265C10.9927 18.135 10.9743 17.9817 11.0127 17.8383C11.051 17.6933 11.1443 17.57 11.276 17.4933C12.1293 17 12.6393 16.1167 12.6393 15.1317C12.6393 14.1467 12.1293 13.2633 11.2743 12.77C11.146 12.6933 11.0527 12.5733 11.0143 12.4283C10.976 12.2833 10.9943 12.1333 11.0677 12.0017L12.106 10.2C12.1827 10.07 12.3043 9.97668 12.451 9.93835C12.4993 9.92668 12.5477 9.92001 12.596 9.92001C12.696 9.92001 12.7927 9.94668 12.881 9.99668C13.306 10.2417 13.7627 10.3667 14.2393 10.3667C14.936 10.3667 15.6293 10.0867 16.1393 9.59668C16.6743 9.08335 16.9693 8.38668 16.9693 7.63668C16.9693 7.32335 17.2243 7.06835 17.5377 7.06835H19.6077C19.7593 7.06835 19.9027 7.12835 20.011 7.23501C20.1193 7.34335 20.1777 7.48501 20.1777 7.63835C20.1777 8.39001 20.4727 9.08668 21.0077 9.59835C21.5177 10.0883 22.211 10.3683 22.9077 10.3683C23.3843 10.3683 23.841 10.2433 24.2693 9.99668C24.3543 9.94835 24.451 9.92335 24.5493 9.92335C24.5993 9.92335 24.6493 9.93001 24.6977 9.94335C24.8427 9.98168 24.9643 10.075 25.041 10.2067L26.0793 12.0017C26.1543 12.1333 26.1743 12.285 26.1343 12.4317C26.096 12.5783 26.001 12.7 25.8693 12.7767C25.016 13.27 24.5077 14.1517 24.506 15.1367C24.506 16.1217 25.016 17.005 25.871 17.5C26.001 17.5767 26.0943 17.6983 26.1327 17.8433C26.1727 17.9883 26.1527 18.1417 26.0777 18.275L26.076 18.27Z" fill="#003EDB"/>
<path fill-rule="evenodd" clip-rule="evenodd" d="M21.0942 12.61C20.4209 11.9367 19.5242 11.565 18.5725 11.565C17.6209 11.565 16.7242 11.9367 16.0509 12.61C15.3775 13.2833 15.0059 14.18 15.0059 15.1317C15.0059 16.0833 15.3775 16.98 16.0509 17.6533C16.7242 18.3267 17.6209 18.6983 18.5725 18.6983C19.5242 18.6983 20.4209 18.3267 21.0942 17.6533C21.7675 16.98 22.1392 16.0833 22.1392 15.1317C22.1392 14.18 21.7675 13.2833 21.0942 12.61ZM20.1625 16.7233C19.7375 17.1483 19.1725 17.3817 18.5709 17.3817C17.9692 17.3817 17.4042 17.1483 16.9792 16.7233C16.5542 16.2983 16.3209 15.7333 16.3209 15.1317C16.3209 14.53 16.5542 13.965 16.9792 13.54C17.4042 13.115 17.9692 12.8817 18.5709 12.8817C19.1725 12.8817 19.7375 13.115 20.1625 13.54C20.5875 13.965 20.8209 14.53 20.8209 15.1317C20.8209 15.7333 20.5875 16.2983 20.1625 16.7233Z" fill="#003EDB"/>
</svg>
