<svg width="50" height="50" viewBox="0 0 50 50" fill="none" xmlns="http://www.w3.org/2000/svg">
<path d="M43.9408 24.055H5.9758C5.1058 24.055 4.35913 23.5567 4.0258 22.7533C3.69247 21.95 3.86747 21.0683 4.48247 20.4533L23.4475 1.45334C23.8458 1.05334 24.3758 0.833344 24.9408 0.833344C25.5041 0.833344 26.0341 1.05334 26.4341 1.45168L45.4325 20.45C46.0475 21.065 46.2225 21.9467 45.8908 22.75C45.5575 23.5533 44.8108 24.0533 43.9408 24.0533V24.055ZM24.9425 1.93334C24.6725 1.93334 24.4175 2.03834 24.2275 2.23001L5.25913 21.2283C4.9608 21.5283 4.87913 21.94 5.0408 22.33C5.20247 22.72 5.55247 22.9533 5.9758 22.9533H43.9408C44.3641 22.9533 44.7125 22.72 44.8758 22.3283C45.0375 21.9367 44.9558 21.525 44.6558 21.2267L25.6575 2.23001C25.4658 2.03834 25.2125 1.93334 24.9425 1.93334Z" fill="#003DD6"/>
<path d="M11.0788 44.4817H9.18211C7.93044 44.4817 6.91211 43.4633 6.91211 42.2117V22.9533H13.3504V42.2117C13.3504 43.4633 12.3321 44.4817 11.0804 44.4817H11.0788ZM8.01044 24.055V42.2133C8.01044 42.8583 8.53544 43.3833 9.18044 43.3833H11.0771C11.7221 43.3833 12.2471 42.8583 12.2471 42.2133V24.055H8.00878H8.01044Z" fill="#003DD6"/>
<path d="M20.9635 44.4817H19.0669C17.8152 44.4817 16.7969 43.4633 16.7969 42.2117V22.9533H23.2352V42.2117C23.2352 43.4633 22.2169 44.4817 20.9652 44.4817H20.9635ZM17.8952 24.055V42.2133C17.8952 42.8583 18.4202 43.3833 19.0652 43.3833H20.9619C21.6069 43.3833 22.1319 42.8583 22.1319 42.2133V24.055H17.8935H17.8952Z" fill="#003DD6"/>
<path d="M30.8483 44.4817H28.9516C27.7 44.4817 26.6816 43.4633 26.6816 42.2117V22.9533H33.12V42.2117C33.12 43.4633 32.1016 44.4817 30.85 44.4817H30.8483ZM27.78 24.055V42.2133C27.78 42.8583 28.305 43.3833 28.95 43.3833H30.8466C31.4916 43.3833 32.0166 42.8583 32.0166 42.2133V24.055H27.7783H27.78Z" fill="#003DD6"/>
<path d="M40.7331 44.4817H38.8364C37.5847 44.4817 36.5664 43.4633 36.5664 42.2117V22.9533H43.0047V42.2117C43.0047 43.4633 41.9864 44.4817 40.7347 44.4817H40.7331ZM37.6647 24.055V42.2133C37.6647 42.8583 38.1897 43.3833 38.8347 43.3833H40.7314C41.3764 43.3833 41.9014 42.8583 41.9014 42.2133V24.055H37.6631H37.6647Z" fill="#003DD6"/>
<path d="M43.1873 46.5583H6.72896C5.85396 46.5583 5.14062 45.8467 5.14062 44.97C5.14062 44.0933 5.85229 43.3817 6.72896 43.3817H43.1873C44.0623 43.3817 44.7756 44.0933 44.7756 44.97C44.7756 45.8467 44.064 46.5583 43.1873 46.5583ZM6.72896 44.4817C6.46062 44.4817 6.24062 44.7 6.24062 44.97C6.24062 45.24 6.45896 45.4583 6.72896 45.4583H43.1873C43.4556 45.4583 43.6756 45.24 43.6756 44.97C43.6756 44.7 43.4573 44.4817 43.1873 44.4817H6.72896Z" fill="#003DD6"/>
<path d="M46.5106 49.0117H3.40557C2.42557 49.0117 1.62891 48.215 1.62891 47.235C1.62891 46.255 2.42557 45.4583 3.40557 45.4583H46.5106C47.4906 45.4583 48.2872 46.255 48.2872 47.235C48.2872 48.215 47.4906 49.0117 46.5106 49.0117ZM3.40557 46.5583C3.03224 46.5583 2.72891 46.8617 2.72891 47.235C2.72891 47.6083 3.03224 47.9117 3.40557 47.9117H46.5106C46.8839 47.9117 47.1872 47.6083 47.1872 47.235C47.1872 46.8617 46.8839 46.5583 46.5106 46.5583H3.40557Z" fill="#003DD6"/>
<path d="M36.2357 31.2517L27.0041 9.76333C26.6474 8.93 25.8607 8.41333 24.9557 8.41333C24.0507 8.41333 23.2641 8.93 22.9074 9.76333L13.6757 31.2517C13.3791 31.9433 13.4491 32.73 13.8624 33.3583C14.2757 33.9867 14.9724 34.3617 15.7241 34.3617H34.1857C34.9374 34.3617 35.6341 33.9867 36.0474 33.3583C36.4607 32.73 36.5307 31.9433 36.2341 31.2517H36.2357ZM24.9557 32.5567C24.0024 32.5567 23.2274 31.7817 23.2274 30.8283C23.2274 29.875 24.0024 29.1 24.9557 29.1C25.9091 29.1 26.6841 29.875 26.6841 30.8283C26.6841 31.7817 25.9091 32.5567 24.9557 32.5567ZM26.9057 14.61L25.8174 27.8783C25.7791 28.3383 25.4174 28.6717 24.9557 28.6717C24.4941 28.6717 24.1324 28.3383 24.0941 27.8783L23.0057 14.61C22.9857 14.37 23.0691 14.13 23.2324 13.9533C23.3957 13.7767 23.6274 13.675 23.8674 13.675H26.0424C26.2824 13.675 26.5141 13.7767 26.6774 13.9533C26.8407 14.13 26.9224 14.37 26.9041 14.61H26.9057Z" fill="#003DD6"/>
<path d="M26.6852 30.8283C26.6852 31.7817 25.9102 32.5567 24.9568 32.5567C24.0035 32.5567 23.2285 31.7817 23.2285 30.8283C23.2285 29.875 24.0035 29.1 24.9568 29.1C25.9102 29.1 26.6852 29.875 26.6852 30.8283Z" fill="white"/>
<path d="M26.9049 14.61L25.8165 27.8783C25.7782 28.3383 25.4165 28.6717 24.9549 28.6717C24.4932 28.6717 24.1315 28.3383 24.0932 27.8783L23.0049 14.61C22.9849 14.37 23.0682 14.13 23.2315 13.9533C23.3949 13.7767 23.6265 13.675 23.8665 13.675H26.0415C26.2815 13.675 26.5132 13.7767 26.6765 13.9533C26.8399 14.13 26.9215 14.37 26.9032 14.61H26.9049Z" fill="white"/>
</svg>
