<svg width="50" height="50" viewBox="0 0 50 50" fill="none" xmlns="http://www.w3.org/2000/svg">
<path d="M37.2577 36.69H12.741C10.7327 36.69 8.84432 35.9083 7.42432 34.4883C6.00432 33.0683 5.22266 31.18 5.22266 29.1717C5.22266 27.605 5.69932 26.1033 6.60266 24.8283C7.41932 23.6767 8.52432 22.7883 9.81432 22.2433C10.5143 19.445 13.0477 17.4483 15.966 17.4483C17.336 17.4483 18.6377 17.8783 19.7177 18.675C20.2243 17.175 21.1477 15.83 22.3827 14.8133C23.9027 13.5617 25.8277 12.8717 27.7993 12.8717C30.0777 12.8717 32.2177 13.7583 33.8293 15.37C35.4393 16.98 36.3277 19.1217 36.3277 21.4C36.3277 21.5033 36.326 21.6067 36.3227 21.71C36.6327 21.6717 36.946 21.6517 37.2593 21.6517C39.2677 21.6517 41.156 22.4333 42.576 23.8533C43.996 25.2733 44.7777 27.1617 44.7777 29.17C44.7777 31.1783 43.996 33.0667 42.576 34.4867C41.156 35.9067 39.2677 36.6883 37.2593 36.6883L37.2577 36.69ZM15.9643 18.6883C13.5243 18.6883 11.4177 20.425 10.9543 22.8167L10.8877 23.1583L10.561 23.28C9.36932 23.72 8.35099 24.505 7.61266 25.545C6.85932 26.6083 6.46099 27.8633 6.46099 29.1717C6.46099 32.635 9.27766 35.4517 12.741 35.4517H37.2577C40.721 35.4517 43.5377 32.635 43.5377 29.1717C43.5377 25.7083 40.721 22.8917 37.2577 22.8917C36.7577 22.8917 36.261 22.95 35.781 23.0667L34.901 23.2783L35.021 22.3817C35.0643 22.06 35.086 21.73 35.086 21.4017C35.086 19.455 34.3277 17.625 32.951 16.2483C31.5743 14.8717 29.7443 14.1133 27.7977 14.1133C26.111 14.1133 24.4677 14.7033 23.1677 15.7717C21.886 16.8283 20.9943 18.3 20.661 19.915L20.4243 21.055L19.611 20.2233C18.6427 19.2333 17.3477 18.6883 15.9627 18.6883H15.9643Z" fill="#003EDB"/>
<path d="M25.0106 49.2333C24.5239 49.2333 24.1289 48.8383 24.1289 48.3517V39.8C24.1289 39.3133 24.5239 38.9183 25.0106 38.9183C25.4972 38.9183 25.8922 39.3133 25.8922 39.8V48.3517C25.8922 48.8383 25.4972 49.2333 25.0106 49.2333Z" fill="#003DD6"/>
<path d="M26.7703 40.315L25.0103 37.2683L23.252 40.315H26.7703Z" fill="#003DD6"/>
<path d="M18.6231 49.2483C18.3814 49.2483 18.1398 49.1483 17.9648 48.955C17.6398 48.5916 17.6714 48.035 18.0348 47.71L20.5964 45.4183V39.805C20.5964 39.3183 20.9914 38.9233 21.4781 38.9233C21.9648 38.9233 22.3598 39.3183 22.3598 39.805V45.8116C22.3598 46.0633 22.2531 46.3016 22.0664 46.4683L19.2098 49.0233C19.0414 49.1733 18.8314 49.2483 18.6214 49.2483H18.6231Z" fill="#003DD6"/>
<path d="M23.2374 40.32L21.479 37.2733L19.7207 40.32H23.2374Z" fill="#003DD6"/>
<path d="M15.084 47.4466C14.8424 47.4466 14.6007 47.3466 14.4257 47.1533C14.1007 46.79 14.1324 46.2333 14.4957 45.9083L17.0574 43.6166V39.7966C17.0574 39.31 17.4524 38.915 17.939 38.915C18.4257 38.915 18.8207 39.31 18.8207 39.7966V44.0116C18.8207 44.2633 18.714 44.5016 18.5274 44.6683L15.6707 47.2233C15.5024 47.3733 15.2924 47.4483 15.0824 47.4483L15.084 47.4466Z" fill="#003DD6"/>
<path d="M19.6983 40.31L17.94 37.265L16.1816 40.31H19.6983Z" fill="#003DD6"/>
<path d="M31.3946 49.24C31.1846 49.24 30.9746 49.1666 30.8063 49.015L27.9496 46.46C27.7629 46.2933 27.6562 46.0533 27.6562 45.8033V39.7966C27.6562 39.31 28.0513 38.915 28.5379 38.915C29.0246 38.915 29.4196 39.31 29.4196 39.7966V45.41L31.9813 47.7016C32.3446 48.0266 32.3746 48.5833 32.0513 48.9466C31.8763 49.1416 31.6363 49.24 31.3929 49.24H31.3946Z" fill="#003DD6"/>
<path d="M30.2976 40.31L28.5376 37.265L26.7793 40.31H30.2976Z" fill="#003DD6"/>
<path d="M34.918 47.44C34.708 47.44 34.498 47.3667 34.3297 47.215L31.473 44.66C31.2864 44.4933 31.1797 44.2533 31.1797 44.0033V39.7883C31.1797 39.3017 31.5747 38.9067 32.0614 38.9067C32.548 38.9067 32.943 39.3017 32.943 39.7883V43.6083L35.5047 45.9C35.868 46.225 35.898 46.7817 35.5747 47.145C35.3997 47.34 35.1597 47.4383 34.9164 47.4383L34.918 47.44Z" fill="#003DD6"/>
<path d="M33.8194 40.3033L32.0611 37.2583L30.3027 40.3033H33.8194Z" fill="#003DD6"/>
<path d="M24.991 0.908325C25.4777 0.908325 25.8727 1.30333 25.8727 1.78999V10.3417C25.8727 10.8283 25.4777 11.2233 24.991 11.2233C24.5044 11.2233 24.1094 10.8283 24.1094 10.3417V1.78999C24.1094 1.30333 24.5044 0.908325 24.991 0.908325Z" fill="#003DD6"/>
<path d="M23.2305 9.82666L24.9905 12.8733L26.7488 9.82666H23.2305Z" fill="#003DD6"/>
<path d="M31.3792 0.893326C31.6209 0.893326 31.8626 0.993326 32.0376 1.18666C32.3626 1.54999 32.3309 2.10666 31.9676 2.43166L29.4059 4.72333V10.3367C29.4059 10.8233 29.0109 11.2183 28.5242 11.2183C28.0376 11.2183 27.6426 10.8233 27.6426 10.3367V4.32999C27.6426 4.07833 27.7492 3.83999 27.9359 3.67333L30.7926 1.11833C30.9609 0.968326 31.1709 0.893326 31.3809 0.893326H31.3792Z" fill="#003DD6"/>
<path d="M26.7637 9.82166L28.522 12.8683L30.2803 9.82166H26.7637Z" fill="#003DD6"/>
<path d="M34.9183 2.69332C35.16 2.69332 35.4016 2.79332 35.5766 2.98665C35.9016 3.34998 35.87 3.90665 35.5066 4.23165L32.945 6.52332V10.3433C32.945 10.83 32.55 11.225 32.0633 11.225C31.5766 11.225 31.1816 10.83 31.1816 10.3433V6.12832C31.1816 5.87665 31.2883 5.63832 31.475 5.47165L34.3316 2.91665C34.5 2.76665 34.71 2.69165 34.92 2.69165L34.9183 2.69332Z" fill="#003DD6"/>
<path d="M30.3027 9.82999L32.0611 12.8767L33.8194 9.82999H30.3027Z" fill="#003DD6"/>
<path d="M18.6071 0.901657C18.8171 0.901657 19.0271 0.97499 19.1954 1.12666L22.0521 3.68166C22.2388 3.84832 22.3454 4.08832 22.3454 4.33832V10.345C22.3454 10.8317 21.9504 11.2267 21.4638 11.2267C20.9771 11.2267 20.5821 10.8317 20.5821 10.345V4.73332L18.0204 2.44166C17.6571 2.11666 17.6271 1.55999 17.9504 1.19666C18.1254 1.00166 18.3654 0.903324 18.6088 0.903324L18.6071 0.901657Z" fill="#003DD6"/>
<path d="M19.7031 9.83167L21.4631 12.8767L23.2215 9.83167H19.7031Z" fill="#003DD6"/>
<path d="M15.0837 2.70166C15.2937 2.70166 15.5037 2.77499 15.672 2.92666L18.5287 5.48166C18.7153 5.64833 18.822 5.88833 18.822 6.13833V10.3533C18.822 10.84 18.427 11.235 17.9403 11.235C17.4537 11.235 17.0587 10.84 17.0587 10.3533V6.53333L14.497 4.24166C14.1337 3.91666 14.1037 3.35999 14.427 2.99666C14.602 2.80166 14.842 2.70333 15.0853 2.70333L15.0837 2.70166Z" fill="#003DD6"/>
<path d="M16.1816 9.83832L17.94 12.8833L19.6983 9.83832H16.1816Z" fill="#003DD6"/>
</svg>
