<svg width="50" height="50" viewBox="0 0 50 50" fill="none" xmlns="http://www.w3.org/2000/svg">
<path fill-rule="evenodd" clip-rule="evenodd" d="M31.4648 26.7917C31.3698 26.4383 31.1431 26.1433 30.8265 25.96C30.6715 25.87 30.5415 25.74 30.4515 25.585C30.3615 25.43 30.3148 25.2517 30.3148 25.0733C30.3148 24.895 30.3631 24.7167 30.4515 24.5617C30.5415 24.405 30.6715 24.2767 30.8265 24.1867C31.4815 23.8083 31.7065 22.9683 31.3281 22.315L30.5748 21.01C30.3915 20.6933 30.0965 20.4667 29.7431 20.3717C29.6265 20.34 29.5081 20.325 29.3881 20.325C29.1481 20.325 28.9115 20.3883 28.7031 20.5083C28.5481 20.5983 28.3715 20.645 28.1915 20.645C28.0115 20.645 27.8348 20.5967 27.6798 20.5083C27.5248 20.4183 27.3948 20.29 27.3048 20.1333C27.2148 19.9783 27.1665 19.8017 27.1665 19.6217C27.1665 18.865 26.5515 18.25 25.7948 18.25H24.2898C23.5331 18.25 22.9181 18.865 22.9181 19.6233C22.9181 19.8033 22.8698 19.98 22.7798 20.135C22.6898 20.29 22.5598 20.42 22.4048 20.51C22.2498 20.6 22.0731 20.6467 21.8931 20.6467C21.7131 20.6467 21.5365 20.6 21.3815 20.51C21.1731 20.39 20.9365 20.3267 20.6965 20.3267C20.5765 20.3267 20.4565 20.3417 20.3415 20.3733C19.9881 20.4683 19.6931 20.695 19.5098 21.0117L18.7565 22.3183C18.5731 22.635 18.5248 23.005 18.6198 23.3583C18.7148 23.7117 18.9415 24.0067 19.2581 24.19C19.4131 24.28 19.5431 24.41 19.6331 24.565C19.7231 24.72 19.7698 24.8967 19.7698 25.0767C19.7698 25.2567 19.7231 25.4333 19.6331 25.5883C19.5431 25.7433 19.4148 25.8733 19.2581 25.9633C18.9415 26.1467 18.7148 26.4417 18.6198 26.795C18.5248 27.1483 18.5731 27.5183 18.7565 27.835L19.5098 29.14C19.6931 29.4567 19.9881 29.6833 20.3431 29.7783C20.4581 29.81 20.5781 29.825 20.6981 29.825C20.9381 29.825 21.1748 29.7617 21.3831 29.6417C21.5381 29.5517 21.7148 29.505 21.8948 29.505C22.0748 29.505 22.2515 29.5533 22.4065 29.6417C22.5615 29.7317 22.6915 29.8617 22.7815 30.0167C22.8715 30.1717 22.9181 30.3483 22.9198 30.5283C22.9198 30.895 23.0631 31.24 23.3215 31.4983C23.5798 31.7583 23.9248 31.9 24.2915 31.9H25.7965C26.5531 31.9 27.1681 31.285 27.1681 30.5267C27.1681 30.3467 27.2165 30.17 27.3065 30.015C27.3965 29.86 27.5265 29.73 27.6815 29.64C27.8365 29.55 28.0131 29.5033 28.1931 29.5033C28.3731 29.5033 28.5498 29.55 28.7048 29.64C28.9131 29.76 29.1498 29.8233 29.3898 29.8233C29.5098 29.8233 29.6298 29.8083 29.7448 29.7767C30.0981 29.6817 30.3931 29.455 30.5765 29.1383L31.3298 27.8333C31.5131 27.5167 31.5615 27.1467 31.4665 26.7933L31.4648 26.7917ZM30.4998 27.3533L29.7448 28.66C29.6898 28.755 29.6015 28.8217 29.4948 28.85C29.4598 28.86 29.4231 28.8633 29.3881 28.8633C29.3165 28.8633 29.2465 28.845 29.1815 28.8083C28.8715 28.63 28.5398 28.54 28.1931 28.54C27.6865 28.54 27.1831 28.7433 26.8115 29.0983C26.4231 29.4717 26.2081 29.9767 26.2081 30.5233C26.2081 30.6333 26.1648 30.7367 26.0881 30.815C26.0098 30.8933 25.9065 30.9367 25.7948 30.9367H24.2898C24.1781 30.9367 24.0748 30.8933 23.9965 30.815C23.9198 30.7383 23.8748 30.6317 23.8748 30.5217C23.8748 29.975 23.6598 29.4683 23.2715 29.095C22.8998 28.74 22.3965 28.535 21.8898 28.535C21.5431 28.535 21.2115 28.625 20.9015 28.8033C20.8398 28.84 20.7681 28.8583 20.6965 28.8583C20.6598 28.8583 20.6231 28.8533 20.5898 28.845C20.4831 28.8167 20.3948 28.7483 20.3381 28.6533L19.5848 27.3467C19.5315 27.2517 19.5165 27.1417 19.5448 27.035C19.5731 26.93 19.6398 26.84 19.7365 26.7833C20.3565 26.425 20.7281 25.7817 20.7281 25.065C20.7281 24.3483 20.3581 23.7067 19.7348 23.3467C19.6415 23.2917 19.5731 23.2033 19.5448 23.0983C19.5165 22.9933 19.5298 22.8833 19.5831 22.7883L20.3381 21.4783C20.3931 21.3833 20.4831 21.3167 20.5898 21.2883C20.6248 21.28 20.6598 21.275 20.6965 21.275C20.7681 21.275 20.8398 21.2933 20.9031 21.33C21.2115 21.5083 21.5448 21.5983 21.8915 21.5983C22.3981 21.5983 22.9015 21.395 23.2731 21.0383C23.6631 20.665 23.8765 20.1583 23.8765 19.6117C23.8765 19.3833 24.0615 19.1983 24.2898 19.1983H25.7948C25.9048 19.1983 26.0098 19.2417 26.0881 19.32C26.1665 19.3983 26.2098 19.5017 26.2098 19.6133C26.2098 20.16 26.4248 20.6667 26.8131 21.04C27.1848 21.395 27.6881 21.6 28.1948 21.6C28.5415 21.6 28.8731 21.51 29.1848 21.33C29.2465 21.295 29.3181 21.2767 29.3881 21.2767C29.4248 21.2767 29.4615 21.2817 29.4965 21.2917C29.6015 21.32 29.6898 21.3883 29.7465 21.4833L30.5015 22.7883C30.5565 22.8833 30.5698 22.995 30.5415 23.1017C30.5131 23.2083 30.4448 23.2967 30.3498 23.3517C29.7298 23.71 29.3581 24.3517 29.3581 25.0683C29.3581 25.785 29.7281 26.4283 30.3498 26.7867C30.4448 26.8417 30.5115 26.93 30.5398 27.0367C30.5681 27.1433 30.5548 27.2533 30.4998 27.35V27.3533Z" fill="#003EDB"/>
<path fill-rule="evenodd" clip-rule="evenodd" d="M26.8763 23.2367C26.3863 22.7467 25.7346 22.4767 25.0413 22.4767C24.348 22.4767 23.6963 22.7467 23.2063 23.2367C22.7163 23.7267 22.4463 24.3783 22.4463 25.0717C22.4463 25.765 22.7163 26.4167 23.2063 26.9067C23.6963 27.3967 24.348 27.6667 25.0413 27.6667C25.7346 27.6667 26.3863 27.3967 26.8763 26.9067C27.3663 26.4167 27.6363 25.765 27.6363 25.0717C27.6363 24.3783 27.3663 23.7267 26.8763 23.2367ZM26.198 26.2283C25.8896 26.5367 25.478 26.7083 25.0413 26.7083C24.6046 26.7083 24.193 26.5383 23.8846 26.2283C23.5763 25.9183 23.4046 25.5083 23.4046 25.0717C23.4046 24.635 23.5746 24.2233 23.8846 23.915C24.193 23.6067 24.6046 23.435 25.0413 23.435C25.478 23.435 25.8896 23.605 26.198 23.915C26.5063 24.2233 26.678 24.635 26.678 25.0717C26.678 25.5083 26.508 25.92 26.198 26.2283Z" fill="#003EDB"/>
<path d="M41.4053 33.7367C39.3019 33.7367 37.3253 32.9183 35.8369 31.43C34.3503 29.9433 33.5303 27.965 33.5303 25.8617C33.5303 23.7583 34.3469 21.7867 35.8303 20.2983C37.3119 18.8117 39.2853 17.99 41.3836 17.985H41.4053C43.5086 17.985 45.4869 18.805 46.9736 20.2917C48.4603 21.78 49.2803 23.7567 49.2803 25.8617C49.2803 27.9667 48.4619 29.9417 46.9736 31.43C45.4869 32.9167 43.5086 33.7367 41.4053 33.7367ZM41.3836 18.8633C39.5203 18.8683 37.7686 19.5983 36.4503 20.92C35.1319 22.2417 34.4069 23.9967 34.4069 25.8633C34.4069 27.73 35.1353 29.49 36.4569 30.8117C37.7786 32.1333 39.5353 32.8617 41.4053 32.8617C43.2753 32.8617 45.0319 32.1333 46.3536 30.8117C47.6753 29.49 48.4036 27.7333 48.4036 25.8633C48.4036 23.9933 47.6753 22.235 46.3536 20.9133C45.0319 19.5917 43.2753 18.8633 41.4053 18.8633H41.3836Z" fill="#003EDE"/>
<path d="M41.4048 27.305C39.5232 27.305 37.9932 25.775 37.9932 23.8933C37.9932 22.0117 39.5232 20.4817 41.4048 20.4817C43.2865 20.4817 44.8165 22.0117 44.8165 23.8933C44.8165 25.775 43.2865 27.305 41.4048 27.305ZM41.4048 20.9817C39.7998 20.9817 38.4932 22.2883 38.4932 23.8933C38.4932 25.4983 39.7998 26.805 41.4048 26.805C43.0098 26.805 44.3165 25.4983 44.3165 23.8933C44.3165 22.2883 43.0098 20.9817 41.4048 20.9817Z" fill="#003EDB"/>
<path d="M41.405 33.6667C40.3817 33.6667 39.385 33.4733 38.4467 33.0933L38.29 33.03V29.8833C38.29 28.2967 39.4767 26.9667 41.05 26.7867C41.2817 26.76 41.53 26.76 41.7617 26.7867C42.4567 26.865 43.1117 27.1833 43.6084 27.68C44.1967 28.2683 44.5217 29.0517 44.5217 29.8833V33.0283L44.365 33.0917C43.425 33.4717 42.4284 33.665 41.405 33.665V33.6667ZM38.79 32.6917C39.6234 33.0067 40.5034 33.1667 41.405 33.1667C42.3067 33.1667 43.1867 33.0067 44.0217 32.6917V29.885C44.0217 29.1867 43.75 28.53 43.255 28.035C42.8384 27.6183 42.2884 27.3517 41.705 27.2867C41.51 27.2633 41.3034 27.2633 41.1067 27.2867C39.785 27.4367 38.79 28.5533 38.79 29.885V32.6917Z" fill="#003EDB"/>
<path d="M25.042 16.7283C22.9387 16.7283 20.962 15.91 19.4737 14.4217C17.987 12.935 17.167 10.9567 17.167 8.85334C17.167 6.75 17.9837 4.77834 19.467 3.29C20.9487 1.80334 22.922 0.981669 25.0203 0.976669H25.042C27.1453 0.976669 29.1237 1.79667 30.6103 3.28334C32.097 4.77167 32.917 6.74834 32.917 8.85334C32.917 10.9583 32.0987 12.9333 30.6103 14.4217C29.1237 15.9083 27.1453 16.7283 25.042 16.7283ZM25.022 1.85334C23.1587 1.85834 21.407 2.58834 20.0887 3.91C18.7703 5.23167 18.0453 6.98667 18.0453 8.85334C18.0453 10.72 18.7737 12.48 20.0953 13.8017C21.417 15.1233 23.1737 15.8517 25.0437 15.8517C26.9137 15.8517 28.6703 15.1233 29.992 13.8017C31.3137 12.48 32.042 10.7233 32.042 8.85334C32.042 6.98334 31.3137 5.225 29.992 3.90334C28.6703 2.58167 26.9137 1.85334 25.0437 1.85334H25.022Z" fill="#003EDE"/>
<path d="M25.0415 10.2833C23.1599 10.2833 21.6299 8.75332 21.6299 6.87166C21.6299 4.98999 23.1599 3.45999 25.0415 3.45999C26.9232 3.45999 28.4532 4.98999 28.4532 6.87166C28.4532 8.75332 26.9232 10.2833 25.0415 10.2833ZM25.0415 3.96166C23.4365 3.96166 22.1299 5.26833 22.1299 6.87333C22.1299 8.47833 23.4365 9.78499 25.0415 9.78499C26.6465 9.78499 27.9532 8.47833 27.9532 6.87333C27.9532 5.26833 26.6465 3.96166 25.0415 3.96166Z" fill="#003EDB"/>
<path d="M25.0418 16.645C24.0184 16.645 23.0218 16.4517 22.0834 16.0717L21.9268 16.0083V12.8617C21.9268 11.275 23.1134 9.945 24.6868 9.765C24.9184 9.73833 25.1668 9.73833 25.3984 9.765C26.0934 9.84333 26.7484 10.1617 27.2451 10.6583C27.8334 11.2467 28.1584 12.03 28.1584 12.8617V16.0067L28.0018 16.07C27.0618 16.45 26.0651 16.6433 25.0418 16.6433V16.645ZM22.4268 15.67C23.2601 15.985 24.1401 16.145 25.0418 16.145C25.9434 16.145 26.8234 15.985 27.6584 15.67V12.8633C27.6584 12.165 27.3868 11.5083 26.8918 11.0133C26.4751 10.5967 25.9251 10.33 25.3418 10.265C25.1468 10.2417 24.9401 10.2417 24.7434 10.265C23.4218 10.415 22.4268 11.5317 22.4268 12.8633V15.67Z" fill="#003EDB"/>
<path d="M25.042 49.1667C22.9387 49.1667 20.962 48.3483 19.4737 46.86C17.987 45.3733 17.167 43.395 17.167 41.2917C17.167 39.1883 17.9837 37.2167 19.467 35.7283C20.9487 34.2417 22.922 33.42 25.0203 33.415H25.042C27.1453 33.415 29.1237 34.235 30.6103 35.7217C32.097 37.21 32.917 39.1867 32.917 41.2917C32.917 43.3967 32.0987 45.3717 30.6103 46.86C29.122 48.3483 27.1453 49.1667 25.042 49.1667ZM25.022 34.2933C23.1587 34.2983 21.407 35.0283 20.0887 36.35C18.7703 37.6717 18.0453 39.4267 18.0453 41.2933C18.0453 43.16 18.7737 44.92 20.0953 46.2417C21.417 47.5633 23.1737 48.2917 25.0437 48.2917C26.9137 48.2917 28.6703 47.5633 29.992 46.2417C31.3137 44.92 32.042 43.1633 32.042 41.2933C32.042 39.4233 31.3137 37.665 29.992 36.3433C28.6703 35.0217 26.9137 34.2933 25.0437 34.2933H25.022Z" fill="#003EDE"/>
<path d="M25.0415 42.5517C23.1599 42.5517 21.6299 41.0217 21.6299 39.14C21.6299 37.2583 23.1599 35.7283 25.0415 35.7283C26.9232 35.7283 28.4532 37.2583 28.4532 39.14C28.4532 41.0217 26.9232 42.5517 25.0415 42.5517ZM25.0415 36.23C23.4365 36.23 22.1299 37.5367 22.1299 39.1417C22.1299 40.7467 23.4365 42.0533 25.0415 42.0533C26.6465 42.0533 27.9532 40.7467 27.9532 39.1417C27.9532 37.5367 26.6465 36.23 25.0415 36.23Z" fill="#003EDB"/>
<path d="M25.0418 48.9133C24.0184 48.9133 23.0218 48.72 22.0834 48.34L21.9268 48.2767V45.13C21.9268 43.5433 23.1134 42.2133 24.6868 42.0333C24.9184 42.0067 25.1668 42.0067 25.3984 42.0333C26.0934 42.1117 26.7484 42.43 27.2451 42.9267C27.8334 43.515 28.1584 44.2983 28.1584 45.13V48.275L28.0018 48.3383C27.0618 48.7183 26.0651 48.9117 25.0418 48.9117V48.9133ZM22.4268 47.9383C23.2601 48.2533 24.1401 48.4133 25.0418 48.4133C25.9434 48.4133 26.8234 48.2533 27.6584 47.9383V45.1317C27.6584 44.4333 27.3868 43.7767 26.8918 43.2817C26.4751 42.865 25.9251 42.5983 25.3418 42.5333C25.1468 42.51 24.9401 42.51 24.7434 42.5333C23.4218 42.6833 22.4268 43.8 22.4268 45.1317V47.9383Z" fill="#003EDB"/>
<path d="M8.67871 33.7367C6.57538 33.7367 4.59871 32.9183 3.11038 31.43C1.62371 29.9433 0.803711 27.965 0.803711 25.8617C0.803711 23.7583 1.62038 21.7867 3.10371 20.2983C4.58538 18.8117 6.55871 17.99 8.65704 17.985H8.67871C10.782 17.985 12.7604 18.805 14.247 20.2917C15.7337 21.78 16.5537 23.7567 16.5537 25.8617C16.5537 27.9667 15.7354 29.9417 14.247 31.43C12.7604 32.9167 10.782 33.7367 8.67871 33.7367ZM8.65871 18.8633C6.79538 18.8683 5.04371 19.5983 3.72538 20.92C2.40704 22.2417 1.68204 23.9967 1.68204 25.8633C1.68204 27.73 2.41038 29.49 3.73204 30.8117C5.05371 32.1333 6.81038 32.8617 8.68038 32.8617C10.5504 32.8617 12.307 32.1333 13.6287 30.8117C14.9504 29.49 15.6787 27.7333 15.6787 25.8633C15.6787 23.9933 14.9504 22.235 13.6287 20.9133C12.307 19.5917 10.5504 18.8633 8.68038 18.8633H8.65871Z" fill="#003EDE"/>
<path d="M8.67827 27.26C6.7966 27.26 5.2666 25.73 5.2666 23.8483C5.2666 21.9667 6.7966 20.4367 8.67827 20.4367C10.5599 20.4367 12.0899 21.9667 12.0899 23.8483C12.0899 25.73 10.5599 27.26 8.67827 27.26ZM8.67827 20.9367C7.07327 20.9367 5.7666 22.2433 5.7666 23.8483C5.7666 25.4533 7.07327 26.76 8.67827 26.76C10.2833 26.76 11.5899 25.4533 11.5899 23.8483C11.5899 22.2433 10.2833 20.9367 8.67827 20.9367Z" fill="#003EDB"/>
<path d="M8.67848 33.6217C7.65514 33.6217 6.65848 33.4283 5.72014 33.0483L5.56348 32.985V29.8383C5.56348 28.2517 6.75014 26.9217 8.32348 26.7417C8.55514 26.715 8.80348 26.715 9.03514 26.7417C9.73014 26.82 10.3851 27.1383 10.8818 27.635C11.4701 28.2233 11.7951 29.0067 11.7951 29.8383V32.9833L11.6385 33.0467C10.6985 33.4267 9.70181 33.62 8.67848 33.62V33.6217ZM6.06348 32.6467C6.89681 32.9617 7.77681 33.1217 8.67848 33.1217C9.58014 33.1217 10.4601 32.9617 11.2951 32.6467V29.84C11.2951 29.1417 11.0235 28.485 10.5285 27.99C10.1118 27.5733 9.56181 27.3067 8.97848 27.2417C8.78348 27.2183 8.57681 27.2183 8.38014 27.2417C7.05848 27.3917 6.06348 28.5083 6.06348 29.84V32.6467Z" fill="#003EDB"/>
<path d="M38.8981 35.2717C38.8181 35.2717 38.7381 35.25 38.6648 35.2033C38.4598 35.075 38.3981 34.8033 38.5281 34.5983C38.6281 34.4383 38.7281 34.275 38.8231 34.1117C38.9448 33.9017 39.2131 33.8317 39.4231 33.9533C39.6331 34.075 39.7031 34.3433 39.5814 34.5533C39.4814 34.725 39.3764 34.8983 39.2698 35.0667C39.1864 35.1983 39.0431 35.2717 38.8981 35.2717Z" fill="#003EDB"/>
<path d="M35.3733 39.255C35.2467 39.255 35.12 39.2 35.0333 39.0933C34.88 38.905 34.9083 38.63 35.0967 38.4767C35.4317 38.2033 35.7583 37.9133 36.07 37.615C36.245 37.4467 36.5217 37.4533 36.69 37.6283C36.8583 37.8033 36.8517 38.08 36.6767 38.2483C36.3483 38.5633 36.0033 38.87 35.65 39.1567C35.5683 39.2233 35.47 39.255 35.3733 39.255ZM37.2983 37.4067C37.195 37.4067 37.0917 37.37 37.0083 37.2967C36.8267 37.1367 36.81 36.8583 36.97 36.6767C37.2567 36.3533 37.5317 36.015 37.7917 35.67C37.9367 35.4767 38.2117 35.4367 38.405 35.5817C38.5983 35.7267 38.6383 36.0017 38.4933 36.1967C38.22 36.56 37.9283 36.9183 37.6267 37.26C37.54 37.3583 37.42 37.4083 37.2983 37.4083V37.4067Z" fill="#003EDB"/>
<path d="M33.8185 40.3784C33.6735 40.3784 33.5318 40.3067 33.4485 40.175C33.3185 39.97 33.3785 39.7 33.5835 39.57C33.7435 39.4684 33.9018 39.3634 34.0585 39.255C34.2585 39.1184 34.5318 39.1684 34.6685 39.3684C34.8052 39.5684 34.7552 39.8417 34.5552 39.9784C34.3902 40.0917 34.2218 40.2034 34.0552 40.31C33.9818 40.3567 33.9002 40.3784 33.8202 40.3784H33.8185Z" fill="#003EDB"/>
<path d="M33.6802 12.7067C33.6002 12.7067 33.5185 12.685 33.4469 12.6383C33.2869 12.5367 33.1235 12.4383 32.9602 12.3433C32.7502 12.2217 32.6802 11.9533 32.8019 11.7433C32.9235 11.5333 33.1919 11.4633 33.4019 11.585C33.5735 11.685 33.7469 11.79 33.9152 11.8967C34.1202 12.0267 34.1819 12.2967 34.0519 12.5017C33.9685 12.6333 33.8269 12.7067 33.6802 12.7067Z" fill="#003EDB"/>
<path d="M37.6567 16.24C37.5284 16.24 37.4034 16.185 37.3167 16.0783C37.045 15.7433 36.7551 15.415 36.4567 15.1033C36.2901 14.9283 36.2951 14.65 36.4701 14.4833C36.6451 14.3167 36.9234 14.3217 37.09 14.4967C37.405 14.825 37.71 15.1717 37.9967 15.525C38.15 15.7133 38.1201 15.99 37.9334 16.1417C37.8517 16.2083 37.7551 16.24 37.6567 16.24ZM35.8117 14.3117C35.7084 14.3117 35.6034 14.275 35.52 14.2017C35.1967 13.915 34.8584 13.6383 34.5134 13.3783C34.3201 13.2333 34.2817 12.9583 34.4267 12.7633C34.5717 12.57 34.8467 12.5317 35.0417 12.6767C35.405 12.95 35.7617 13.2433 36.1034 13.545C36.285 13.7067 36.3017 13.9833 36.14 14.165C36.0534 14.2633 35.9334 14.3117 35.8117 14.3117Z" fill="#003EDB"/>
<path d="M38.7785 17.7983C38.6335 17.7983 38.4919 17.7267 38.4069 17.595C38.3052 17.435 38.2002 17.275 38.0935 17.12C37.9569 16.92 38.0069 16.6467 38.2069 16.51C38.4069 16.3733 38.6802 16.4233 38.8169 16.6233C38.9302 16.7883 39.0402 16.9567 39.1469 17.125C39.2769 17.33 39.2152 17.6 39.0119 17.73C38.9386 17.7767 38.8586 17.7983 38.7769 17.7983H38.7785Z" fill="#003EDB"/>
<path d="M11.0719 17.935C10.9919 17.935 10.9119 17.9133 10.8386 17.8667C10.6336 17.7383 10.5719 17.4667 10.7019 17.2617C10.8086 17.0933 10.9186 16.9233 11.0303 16.76C11.1669 16.56 11.4403 16.5083 11.6403 16.645C11.8403 16.7817 11.8919 17.055 11.7553 17.255C11.6486 17.4117 11.5436 17.5717 11.4436 17.7317C11.3603 17.8633 11.2169 17.9367 11.0719 17.9367V17.935Z" fill="#003EDB"/>
<path d="M12.1891 16.3734C12.0924 16.3734 11.9957 16.3417 11.9141 16.2767C11.7257 16.125 11.6957 15.8484 11.8491 15.66C12.1357 15.305 12.4391 14.9584 12.7524 14.6284C12.9191 14.4534 13.1974 14.4467 13.3724 14.6134C13.5474 14.78 13.5541 15.0584 13.3874 15.2334C13.0907 15.5467 12.8024 15.875 12.5307 16.21C12.4441 16.3167 12.3174 16.3734 12.1891 16.3734ZM14.0291 14.4384C13.9091 14.4384 13.7891 14.3884 13.7024 14.2917C13.5407 14.1117 13.5557 13.8334 13.7374 13.6717C14.0774 13.3684 14.4324 13.075 14.7957 12.8C14.9891 12.6534 15.2641 12.6917 15.4107 12.885C15.5574 13.0784 15.5191 13.3534 15.3257 13.5C14.9824 13.76 14.6441 14.0384 14.3224 14.3267C14.2391 14.4017 14.1341 14.4384 14.0307 14.4384H14.0291Z" fill="#003EDB"/>
<path d="M16.1554 12.8283C16.0104 12.8283 15.8688 12.7567 15.7854 12.625C15.6554 12.42 15.7154 12.15 15.9204 12.02C16.0888 11.9133 16.2604 11.8083 16.4321 11.7067C16.6404 11.5833 16.9104 11.6533 17.0321 11.8633C17.1554 12.0717 17.0854 12.3417 16.8754 12.4633C16.7121 12.5583 16.5488 12.6583 16.3904 12.76C16.3171 12.8067 16.2354 12.8283 16.1554 12.8283Z" fill="#003EDB"/>
<path d="M16.2629 40.4833C16.1829 40.4833 16.1012 40.4617 16.0279 40.415C15.8596 40.3083 15.6912 40.1967 15.5262 40.0833C15.3262 39.9467 15.2762 39.6733 15.4129 39.4733C15.5496 39.2733 15.8229 39.2233 16.0229 39.36C16.1779 39.4667 16.3379 39.5717 16.4979 39.6733C16.7029 39.8033 16.7629 40.075 16.6329 40.2783C16.5496 40.41 16.4079 40.4817 16.2629 40.4817V40.4833Z" fill="#003EDB"/>
<path d="M14.7066 39.3617C14.6099 39.3617 14.5116 39.33 14.4299 39.2633C14.0766 38.9767 13.7316 38.6717 13.4016 38.355C13.2266 38.1867 13.2199 37.91 13.3883 37.735C13.5566 37.56 13.8333 37.5533 14.0083 37.7217C14.3199 38.02 14.6483 38.31 14.9833 38.5817C15.1716 38.735 15.1999 39.0117 15.0466 39.1983C14.9599 39.305 14.8333 39.36 14.7066 39.36V39.3617ZM12.7799 37.515C12.6583 37.515 12.5383 37.465 12.4516 37.3667C12.1499 37.0267 11.8583 36.6683 11.5849 36.305C11.4399 36.1117 11.4783 35.8367 11.6716 35.69C11.8649 35.545 12.1399 35.5833 12.2866 35.7767C12.5466 36.1217 12.8233 36.46 13.1083 36.7833C13.2683 36.965 13.2533 37.2417 13.0716 37.4033C12.9883 37.4767 12.8849 37.5133 12.7799 37.5133V37.515Z" fill="#003EDB"/>
<path d="M11.1766 35.3817C11.0316 35.3817 10.8883 35.31 10.805 35.1767C10.6983 35.0083 10.5933 34.835 10.4933 34.6633C10.3716 34.4533 10.4416 34.185 10.6516 34.0633C10.8616 33.9417 11.13 34.0117 11.2516 34.2217C11.3466 34.385 11.4466 34.5483 11.5466 34.7083C11.6766 34.9133 11.615 35.1833 11.41 35.3133C11.3366 35.36 11.2566 35.3817 11.1766 35.3817Z" fill="#003EDB"/>
</svg>
