<svg width="50" height="50" viewBox="0 0 50 50" fill="none" xmlns="http://www.w3.org/2000/svg">
<path d="M24.8043 5.15168C23.5809 5.15168 22.5859 4.15668 22.5859 2.93335C22.5859 1.71001 23.5793 0.716682 24.7993 0.713348H24.8059C26.0293 0.713348 27.0243 1.70835 27.0243 2.93335C27.0243 4.15835 26.0293 5.15168 24.8059 5.15168H24.8043ZM24.7993 1.94001C24.2559 1.94001 23.8126 2.38668 23.8126 2.93168C23.8126 3.47668 24.2576 3.92335 24.8043 3.92335C25.3509 3.92335 25.7959 3.47835 25.7959 2.93168C25.7959 2.38501 25.3509 1.94001 24.8043 1.94001H24.7993Z" fill="#003EDE"/>
<path d="M27.9089 20.5717H27.8855V18.7933C27.8855 17.9717 27.5655 17.1983 26.9839 16.6167C26.4022 16.035 25.6289 15.715 24.8072 15.715C23.1089 15.715 21.7272 17.0967 21.7272 18.795V20.5733H21.7039C20.5222 20.5733 19.5605 21.4233 19.5605 22.4667V28.435C19.5605 29.48 20.5222 30.3283 21.7039 30.3283H27.9089C29.0905 30.3283 30.0522 29.4783 30.0522 28.435V22.4667C30.0522 21.4233 29.0905 20.5733 27.9089 20.5733V20.5717ZM22.6239 18.7933C22.6239 17.59 23.6022 16.6117 24.8055 16.6117C25.3889 16.6117 25.9372 16.8383 26.3489 17.2517C26.7605 17.6633 26.9889 18.2117 26.9889 18.795V20.5733H22.6239V18.795V18.7933ZM29.1555 28.4333C29.1555 28.9833 28.5972 29.43 27.9089 29.43H21.7039C21.0155 29.43 20.4572 28.9833 20.4572 28.4333V22.465C20.4572 21.915 21.0172 21.4683 21.7039 21.4683H27.9089C28.5955 21.4683 29.1555 21.915 29.1555 22.465V28.4333Z" fill="#003EDE"/>
<path d="M25.2535 25.9633C25.5169 25.8883 25.7585 25.7467 25.9585 25.5483C26.2669 25.24 26.4352 24.8317 26.4352 24.395C26.4352 23.9583 26.2652 23.55 25.9569 23.2417C25.6485 22.9333 25.2402 22.7633 24.8035 22.7633C24.3669 22.7633 23.9585 22.9333 23.6502 23.2417C23.3419 23.55 23.1719 23.9583 23.1719 24.395C23.1719 25.1383 23.6719 25.7667 24.3535 25.9633V28.4067H25.9835V27.51H25.2502V27.1533H25.9835V26.2567H25.2502V25.965L25.2535 25.9633ZM24.0719 24.395C24.0719 24.1983 24.1485 24.015 24.2869 23.8767C24.4252 23.7383 24.6102 23.6617 24.8052 23.6617C25.0002 23.6617 25.1852 23.7383 25.3235 23.8767C25.4619 24.015 25.5385 24.2 25.5385 24.395C25.5385 24.59 25.4619 24.775 25.3235 24.9133C25.1852 25.0517 25.0002 25.1283 24.8052 25.1283C24.4002 25.1283 24.0719 24.8 24.0719 24.395Z" fill="#003EDE"/>
<path d="M24.805 38.345C24.7433 38.345 24.6816 38.335 24.6233 38.3167C22.655 37.7067 20.8133 36.205 19.1516 33.855C17.8566 32.0233 16.66 29.665 15.595 26.845C13.7933 22.0767 12.975 17.5517 12.9683 17.5067C12.92 17.2317 13.0633 16.9567 13.3166 16.84L24.55 11.6933C24.7116 11.6183 24.8983 11.6183 25.0616 11.6933L36.295 16.84C36.55 16.9567 36.6933 17.23 36.6433 17.5067C36.635 17.5517 35.8166 22.0767 34.0166 26.845C32.9516 29.6633 31.755 32.0217 30.46 33.855C28.7983 36.205 26.9566 37.7067 24.9883 38.3167C24.9283 38.335 24.8683 38.345 24.8066 38.345H24.805ZM14.2666 17.7567C14.5216 19.015 15.3183 22.6433 16.75 26.4283C17.7783 29.145 18.925 31.4083 20.16 33.1533C21.6066 35.1983 23.17 36.52 24.805 37.085C26.4416 36.52 28.0033 35.1983 29.45 33.1533C30.685 31.4083 31.8316 29.1467 32.86 26.4283C34.2916 22.6433 35.0883 19.015 35.3433 17.7567L24.805 12.9283L14.2666 17.7567Z" fill="#003EDE"/>
<path d="M24.8047 12.8667C24.4664 12.8667 24.1914 12.5917 24.1914 12.2533V4.53667C24.1914 4.19834 24.4664 3.92334 24.8047 3.92334C25.1431 3.92334 25.4181 4.19834 25.4181 4.53667V12.2517C25.4181 12.59 25.1431 12.865 24.8047 12.865V12.8667Z" fill="#003EDE"/>
<path d="M17.8121 8.21C16.5888 8.21 15.5938 7.215 15.5938 5.99167C15.5938 4.76833 16.5871 3.775 17.8071 3.77167H17.8137C19.0371 3.77167 20.0321 4.76667 20.0321 5.99167C20.0321 7.21667 19.0371 8.21 17.8137 8.21H17.8121ZM17.8071 5C17.2637 5 16.8204 5.44667 16.8204 5.99167C16.8204 6.53667 17.2654 6.98333 17.8121 6.98333C18.3588 6.98333 18.8038 6.53833 18.8038 5.99167C18.8038 5.445 18.3588 5 17.8121 5H17.8071Z" fill="#003EDE"/>
<path d="M20.9612 14.2217C20.6228 14.2217 20.3478 13.9467 20.3478 13.6083V9.15165L18.5645 7.55665C18.3112 7.32999 18.2895 6.94332 18.5162 6.68999C18.7428 6.43665 19.1295 6.41499 19.3828 6.64165L21.3712 8.41999C21.5012 8.53665 21.5762 8.70332 21.5762 8.87832V13.61C21.5762 13.9483 21.3012 14.2233 20.9628 14.2233L20.9612 14.2217Z" fill="#003EDE"/>
<path d="M13.9527 12.6317C12.7294 12.6317 11.7344 11.6367 11.7344 10.4133C11.7344 9.19 12.7277 8.19666 13.9477 8.19333H13.9544C15.1777 8.19333 16.1727 9.18833 16.1727 10.4133C16.1727 11.6383 15.1777 12.6317 13.9544 12.6317H13.9527ZM13.9477 9.42C13.4044 9.42 12.961 9.86666 12.961 10.4117C12.961 10.9567 13.406 11.4033 13.9527 11.4033C14.4994 11.4033 14.9444 10.9583 14.9444 10.4117C14.9444 9.865 14.4994 9.42 13.9527 9.42H13.9477Z" fill="#003EDE"/>
<path d="M17.1018 16.3116C16.7635 16.3116 16.4885 16.0366 16.4885 15.6983V13.5733L14.7051 11.9783C14.4518 11.7516 14.4301 11.365 14.6568 11.1116C14.8835 10.8583 15.2718 10.8366 15.5235 11.0633L17.5118 12.8416C17.6418 12.9583 17.7168 13.125 17.7168 13.3V15.7C17.7168 16.0383 17.4418 16.3133 17.1035 16.3133L17.1018 16.3116Z" fill="#003EDE"/>
<path d="M31.8043 8.21C30.5809 8.21 29.5859 7.215 29.5859 5.99167C29.5859 4.76833 30.5809 3.77167 31.8043 3.77167H31.8093C33.0309 3.775 34.0243 4.77 34.0243 5.99167C34.0243 7.21333 33.0293 8.21 31.8059 8.21H31.8043ZM31.8076 5H31.8043C31.2576 5 30.8126 5.445 30.8126 5.99167C30.8126 6.53833 31.2576 6.98333 31.8043 6.98333C32.3509 6.98333 32.7959 6.53833 32.7959 5.99167C32.7959 5.445 32.3526 5.00167 31.8076 5Z" fill="#003EDE"/>
<path d="M28.6543 14.4783C28.316 14.4783 28.041 14.2033 28.041 13.865V8.87667C28.041 8.70167 28.116 8.535 28.246 8.41834L30.2343 6.64C30.4877 6.41334 30.8743 6.435 31.101 6.68834C31.3277 6.94167 31.306 7.33 31.0527 7.555L29.2693 9.15V13.8633C29.2693 14.2017 28.9943 14.4767 28.656 14.4767L28.6543 14.4783Z" fill="#003EDE"/>
<path d="M35.6324 12.6317C34.4091 12.6317 33.4141 11.6367 33.4141 10.4133C33.4141 9.19 34.4091 8.19333 35.6324 8.19333H35.6374C36.8591 8.19666 37.8524 9.19166 37.8524 10.4133C37.8524 11.635 36.8574 12.6317 35.6341 12.6317H35.6324ZM35.6357 9.42H35.6324C35.0857 9.42 34.6407 9.865 34.6407 10.4117C34.6407 10.9583 35.0857 11.4033 35.6324 11.4033C36.1791 11.4033 36.6241 10.9583 36.6241 10.4117C36.6241 9.865 36.1807 9.42166 35.6357 9.42Z" fill="#003EDE"/>
<path d="M32.4825 16.3117C32.1441 16.3117 31.8691 16.0367 31.8691 15.6983V13.2983C31.8691 13.1233 31.9441 12.9567 32.0741 12.84L34.0625 11.0617C34.3158 10.835 34.7025 10.8567 34.9291 11.11C35.1558 11.3633 35.1341 11.7517 34.8808 11.9767L33.0975 13.5717V15.6967C33.0975 16.035 32.8225 16.31 32.4841 16.31L32.4825 16.3117Z" fill="#003EDE"/>
<path d="M24.8023 49.2867C23.579 49.2867 22.584 48.2917 22.584 47.0667C22.584 45.8417 23.579 44.8483 24.8023 44.8483C26.0257 44.8483 27.0207 45.8433 27.0207 47.0667C27.0207 48.29 26.0273 49.2833 24.8073 49.2867H24.8007H24.8023ZM24.8023 46.0767C24.2557 46.0767 23.8107 46.5217 23.8107 47.0683C23.8107 47.615 24.2557 48.06 24.8023 48.06H24.8073C25.3507 48.06 25.794 47.6133 25.794 47.0683C25.794 46.5233 25.349 46.0767 24.8023 46.0767Z" fill="#003EDE"/>
<path d="M24.8008 46.0767C24.4625 46.0767 24.1875 45.8017 24.1875 45.4633V37.7483C24.1875 37.41 24.4625 37.135 24.8008 37.135C25.1392 37.135 25.4142 37.41 25.4142 37.7483V45.4633C25.4142 45.8017 25.1392 46.0767 24.8008 46.0767Z" fill="#003EDE"/>
<path d="M19.0188 47.65H19.0138C17.7922 47.6467 16.7988 46.6517 16.7988 45.43C16.7988 44.2083 17.7938 43.2117 19.0172 43.2117C20.2405 43.2117 21.2355 44.2067 21.2355 45.43C21.2355 46.6533 20.2405 47.65 19.0172 47.65H19.0188ZM19.0188 44.44C18.4722 44.44 18.0272 44.885 18.0272 45.4317C18.0272 45.9783 18.4705 46.4217 19.0155 46.4233H19.0188C19.5655 46.4233 20.0105 45.9783 20.0105 45.4317C20.0105 44.885 19.5655 44.44 19.0188 44.44Z" fill="#003EDE"/>
<path d="M20.1796 44.9383C20.0112 44.9383 19.8429 44.87 19.7212 44.7333C19.4946 44.48 19.5162 44.0917 19.7696 43.8667L21.5529 42.2717V36.6017C21.5529 36.2633 21.8279 35.9883 22.1662 35.9883C22.5046 35.9883 22.7796 36.2633 22.7796 36.6017V42.5467C22.7796 42.7217 22.7046 42.8883 22.5746 43.005L20.5862 44.7833C20.4696 44.8883 20.3229 44.94 20.1779 44.94L20.1796 44.9383Z" fill="#003EDE"/>
<path d="M16.3841 43.23H16.3791C15.1574 43.2267 14.1641 42.2317 14.1641 41.01C14.1641 39.7883 15.1591 38.7917 16.3824 38.7917C17.6057 38.7917 18.6007 39.7867 18.6007 41.01C18.6007 42.2333 17.6057 43.23 16.3824 43.23H16.3841ZM16.3841 40.02C15.8374 40.02 15.3924 40.465 15.3924 41.0117C15.3924 41.5583 15.8357 42.0017 16.3807 42.0033H16.3841C16.9307 42.0033 17.3757 41.5583 17.3757 41.0117C17.3757 40.465 16.9307 40.02 16.3841 40.02Z" fill="#003EDE"/>
<path d="M17.5448 40.5183C17.3765 40.5183 17.2081 40.45 17.0865 40.3133C16.8598 40.06 16.8815 39.6716 17.1348 39.4467L18.9181 37.8517V33.43C18.9181 33.0917 19.1931 32.8167 19.5315 32.8167C19.8698 32.8167 20.1448 33.0917 20.1448 33.43V38.1267C20.1448 38.3017 20.0698 38.4683 19.9398 38.585L17.9515 40.3633C17.8348 40.4683 17.6881 40.52 17.5431 40.52L17.5448 40.5183Z" fill="#003EDE"/>
<path d="M30.5836 47.65C29.3602 47.65 28.3652 46.655 28.3652 45.43C28.3652 44.205 29.3602 43.2117 30.5836 43.2117C31.8069 43.2117 32.8019 44.2067 32.8019 45.43C32.8019 46.6533 31.8086 47.6467 30.5886 47.65H30.5819H30.5836ZM30.5836 44.44C30.0369 44.44 29.5919 44.885 29.5919 45.4317C29.5919 45.9783 30.0369 46.4233 30.5836 46.4233H30.5886C31.1319 46.4233 31.5752 45.9767 31.5752 45.4317C31.5752 44.8867 31.1302 44.44 30.5836 44.44Z" fill="#003EDE"/>
<path d="M29.422 44.9383C29.277 44.9383 29.1303 44.8867 29.0136 44.7817L27.0253 43.0033C26.8953 42.8867 26.8203 42.72 26.8203 42.545V36.6C26.8203 36.2617 27.0953 35.9867 27.4336 35.9867C27.772 35.9867 28.047 36.2617 28.047 36.6V42.27L29.8303 43.865C30.0836 44.0917 30.1053 44.4783 29.8786 44.7317C29.757 44.8667 29.5886 44.9367 29.4203 44.9367L29.422 44.9383Z" fill="#003EDE"/>
<path d="M33.2222 43.23C31.9989 43.23 31.0039 42.235 31.0039 41.01C31.0039 39.785 31.9989 38.7917 33.2222 38.7917C34.4456 38.7917 35.4406 39.7867 35.4406 41.01C35.4406 42.2333 34.4472 43.2267 33.2272 43.23H33.2206H33.2222ZM33.2222 40.02C32.6756 40.02 32.2306 40.465 32.2306 41.0117C32.2306 41.5583 32.6756 42.0033 33.2222 42.0033H33.2272C33.7706 42.0033 34.2139 41.5567 34.2139 41.0117C34.2139 40.4667 33.7689 40.02 33.2222 40.02Z" fill="#003EDE"/>
<path d="M32.0607 40.5183C31.9157 40.5183 31.769 40.4667 31.6523 40.3617L29.664 38.5833C29.534 38.4667 29.459 38.3 29.459 38.125V33.4283C29.459 33.09 29.734 32.815 30.0723 32.815C30.4106 32.815 30.6857 33.09 30.6857 33.4283V37.85L32.469 39.445C32.7223 39.6717 32.744 40.0583 32.5173 40.3117C32.3957 40.4467 32.2273 40.5167 32.059 40.5167L32.0607 40.5183Z" fill="#003EDE"/>
</svg>
