<svg width="50" height="50" viewBox="0 0 50 50" fill="none" xmlns="http://www.w3.org/2000/svg">
<path d="M45.608 43.1717H4.33634C2.40467 43.1717 0.833008 41.6 0.833008 39.6683V11.5867C0.833008 9.65501 2.40467 8.08334 4.33634 8.08334H45.608C47.5397 8.08334 49.1113 9.65501 49.1113 11.5867V39.6683C49.1113 41.6 47.5397 43.1717 45.608 43.1717ZM4.33634 8.90168C2.85634 8.90168 1.65134 10.1067 1.65134 11.5867V39.6683C1.65134 41.1483 2.85634 42.3533 4.33634 42.3533H45.608C47.088 42.3533 48.293 41.1483 48.293 39.6683V11.5867C48.293 10.1067 47.088 8.90168 45.608 8.90168H4.33634Z" fill="#003EDE"/>
<path d="M18.6379 37.375H17.9712C17.8129 37.375 17.6846 37.5033 17.6846 37.6617V40.6817C17.6846 40.84 17.8129 40.9683 17.9712 40.9683H18.6379C18.7962 40.9683 18.9246 40.84 18.9246 40.6817V37.6617C18.9246 37.5033 18.7962 37.375 18.6379 37.375Z" fill="#003EDB"/>
<path d="M20.3029 32.0067H19.6363C19.478 32.0067 19.3496 32.135 19.3496 32.2933V40.6817C19.3496 40.84 19.478 40.9683 19.6363 40.9683H20.3029C20.4613 40.9683 20.5896 40.84 20.5896 40.6817V32.2933C20.5896 32.135 20.4613 32.0067 20.3029 32.0067Z" fill="#003EDB"/>
<path d="M21.968 28.745H21.3013C21.143 28.745 21.0146 28.8733 21.0146 29.0317V40.6817C21.0146 40.84 21.143 40.9683 21.3013 40.9683H21.968C22.1263 40.9683 22.2546 40.84 22.2546 40.6817V29.0317C22.2546 28.8733 22.1263 28.745 21.968 28.745Z" fill="#003EDB"/>
<path d="M23.633 34.5367H22.9664C22.808 34.5367 22.6797 34.665 22.6797 34.8233V40.6817C22.6797 40.84 22.808 40.9683 22.9664 40.9683H23.633C23.7913 40.9683 23.9197 40.84 23.9197 40.6817V34.8233C23.9197 34.665 23.7913 34.5367 23.633 34.5367Z" fill="#003EDB"/>
<path d="M25.2981 31.6683H24.6314C24.4731 31.6683 24.3447 31.7967 24.3447 31.955V40.6817C24.3447 40.84 24.4731 40.9683 24.6314 40.9683H25.2981C25.4564 40.9683 25.5847 40.84 25.5847 40.6817V31.955C25.5847 31.7967 25.4564 31.6683 25.2981 31.6683Z" fill="#003EDB"/>
<path d="M26.9631 28.745H26.2964C26.1381 28.745 26.0098 28.8733 26.0098 29.0317V40.6817C26.0098 40.84 26.1381 40.9683 26.2964 40.9683H26.9631C27.1214 40.9683 27.2498 40.84 27.2498 40.6817V29.0317C27.2498 28.8733 27.1214 28.745 26.9631 28.745Z" fill="#003EDB"/>
<path d="M28.6281 24.9383H27.9615C27.8031 24.9383 27.6748 25.0667 27.6748 25.225V40.6817C27.6748 40.84 27.8031 40.9683 27.9615 40.9683H28.6281C28.7865 40.9683 28.9148 40.84 28.9148 40.6817V25.225C28.9148 25.0667 28.7865 24.9383 28.6281 24.9383Z" fill="#003EDB"/>
<path d="M30.2932 26.625H29.6265C29.4682 26.625 29.3398 26.7533 29.3398 26.9117V40.6817C29.3398 40.84 29.4682 40.9683 29.6265 40.9683H30.2932C30.4515 40.9683 30.5798 40.84 30.5798 40.6817V26.9117C30.5798 26.7533 30.4515 26.625 30.2932 26.625Z" fill="#003EDB"/>
<path d="M31.9582 32.3933H31.2915C31.1332 32.3933 31.0049 32.5217 31.0049 32.68V40.6833C31.0049 40.8417 31.1332 40.97 31.2915 40.97H31.9582C32.1165 40.97 32.2449 40.8417 32.2449 40.6833V32.68C32.2449 32.5217 32.1165 32.3933 31.9582 32.3933Z" fill="#003EDB"/>
<path d="M32.6699 35.7717V31.78C32.6699 31.6217 32.7983 31.4933 32.9566 31.4933H33.6216C33.7799 31.4933 33.9083 31.6217 33.9083 31.78V40.6833C33.9083 40.8417 33.7799 40.97 33.6216 40.97H32.9566C32.7983 40.97 32.6699 40.8417 32.6699 40.6833V35.7733" fill="#003EDB"/>
<path d="M35.2883 32.3933H34.6216C34.4633 32.3933 34.335 32.5217 34.335 32.68V40.6833C34.335 40.8417 34.4633 40.97 34.6216 40.97H35.2883C35.4466 40.97 35.575 40.8417 35.575 40.6833V32.68C35.575 32.5217 35.4466 32.3933 35.2883 32.3933Z" fill="#003EDB"/>
<path d="M36.9533 34.5367H36.2867C36.1283 34.5367 36 34.665 36 34.8233V40.6817C36 40.84 36.1283 40.9683 36.2867 40.9683H36.9533C37.1117 40.9683 37.24 40.84 37.24 40.6817V34.8233C37.24 34.665 37.1117 34.5367 36.9533 34.5367Z" fill="#003EDB"/>
<path d="M38.6184 36.6817H37.9517C37.7934 36.6817 37.665 36.81 37.665 36.9683V40.6833C37.665 40.8417 37.7934 40.97 37.9517 40.97H38.6184C38.7767 40.97 38.905 40.8417 38.905 40.6833V36.9683C38.905 36.81 38.7767 36.6817 38.6184 36.6817Z" fill="#003EDB"/>
<path d="M40.2824 28.66H39.6158C39.4574 28.66 39.3291 28.7883 39.3291 28.9467V40.6817C39.3291 40.84 39.4574 40.9683 39.6158 40.9683H40.2824C40.4408 40.9683 40.5691 40.84 40.5691 40.6817V28.9467C40.5691 28.7883 40.4408 28.66 40.2824 28.66Z" fill="#003EDB"/>
<path d="M41.9475 22.1383H41.2808C41.1225 22.1383 40.9941 22.2667 40.9941 22.425V40.6817C40.9941 40.84 41.1225 40.9683 41.2808 40.9683H41.9475C42.1058 40.9683 42.2341 40.84 42.2341 40.6817V22.425C42.2341 22.2667 42.1058 22.1383 41.9475 22.1383Z" fill="#003EDB"/>
<path d="M43.6115 30.575H42.9449C42.7866 30.575 42.6582 30.7034 42.6582 30.8617V40.6833C42.6582 40.8417 42.7866 40.97 42.9449 40.97H43.6115C43.7699 40.97 43.8982 40.8417 43.8982 40.6833V30.8617C43.8982 30.7034 43.7699 30.575 43.6115 30.575Z" fill="#003EDB"/>
<path d="M45.2766 36.6817H44.6099C44.4516 36.6817 44.3232 36.81 44.3232 36.9683V40.6833C44.3232 40.8417 44.4516 40.97 44.6099 40.97H45.2766C45.4349 40.97 45.5632 40.8417 45.5632 40.6833V36.9683C45.5632 36.81 45.4349 36.6817 45.2766 36.6817Z" fill="#003EDB"/>
<path d="M14.792 14.775H3.60536C3.45536 14.775 3.33203 14.6533 3.33203 14.5017C3.33203 14.35 3.4537 14.2283 3.60536 14.2283H14.792C14.942 14.2283 15.0654 14.35 15.0654 14.5017C15.0654 14.6533 14.9437 14.775 14.792 14.775Z" fill="#003EDE"/>
<path d="M14.792 16.7167H3.60536C3.45536 16.7167 3.33203 16.595 3.33203 16.4433C3.33203 16.2917 3.4537 16.17 3.60536 16.17H14.792C14.942 16.17 15.0654 16.2917 15.0654 16.4433C15.0654 16.595 14.9437 16.7167 14.792 16.7167Z" fill="#003EDE"/>
<path d="M14.792 18.6583H3.60536C3.45536 18.6583 3.33203 18.5367 3.33203 18.385C3.33203 18.2333 3.4537 18.1117 3.60536 18.1117H14.792C14.942 18.1117 15.0654 18.2333 15.0654 18.385C15.0654 18.5367 14.9437 18.6583 14.792 18.6583Z" fill="#003EDE"/>
<path d="M14.792 20.6H3.60536C3.45536 20.6 3.33203 20.4783 3.33203 20.3267C3.33203 20.175 3.4537 20.0533 3.60536 20.0533H14.792C14.942 20.0533 15.0654 20.175 15.0654 20.3267C15.0654 20.4783 14.9437 20.6 14.792 20.6Z" fill="#003EDE"/>
<path d="M14.792 22.5417H3.60536C3.45536 22.5417 3.33203 22.42 3.33203 22.2683C3.33203 22.1167 3.4537 21.995 3.60536 21.995H14.792C14.942 21.995 15.0654 22.1167 15.0654 22.2683C15.0654 22.42 14.9437 22.5417 14.792 22.5417Z" fill="#003EDE"/>
<path d="M14.792 24.4833H3.60536C3.45536 24.4833 3.33203 24.3617 3.33203 24.21C3.33203 24.0583 3.4537 23.9367 3.60536 23.9367H14.792C14.942 23.9367 15.0654 24.0583 15.0654 24.21C15.0654 24.3617 14.9437 24.4833 14.792 24.4833Z" fill="#003EDE"/>
<path d="M3.9788 10.7217C4.18499 10.7217 4.35214 10.5545 4.35214 10.3483C4.35214 10.1422 4.18499 9.97501 3.9788 9.97501C3.77262 9.97501 3.60547 10.1422 3.60547 10.3483C3.60547 10.5545 3.77262 10.7217 3.9788 10.7217Z" fill="#003EDE"/>
<path d="M5.1204 10.7217C5.32659 10.7217 5.49374 10.5545 5.49374 10.3483C5.49374 10.1422 5.32659 9.97501 5.1204 9.97501C4.91422 9.97501 4.74707 10.1422 4.74707 10.3483C4.74707 10.5545 4.91422 10.7217 5.1204 10.7217Z" fill="#003EDE"/>
<path d="M6.262 10.7217C6.46819 10.7217 6.63534 10.5545 6.63534 10.3483C6.63534 10.1422 6.46819 9.97501 6.262 9.97501C6.05582 9.97501 5.88867 10.1422 5.88867 10.3483C5.88867 10.5545 6.05582 10.7217 6.262 10.7217Z" fill="#003EDE"/>
<path d="M34.3354 15.6433H39.0204C39.0204 18.2133 36.9054 20.3283 34.3354 20.3283C31.7654 20.3283 29.6504 18.2133 29.6504 15.6433C29.6504 13.0733 31.7654 10.9583 34.3354 10.9583C35.4987 10.9583 36.6204 11.3917 37.4821 12.1717L34.3354 15.6417V15.6433Z" fill="#003EDE"/>
<path d="M37.7864 12.33L34.998 15.365H39.0197C39.0564 15.0633 39.098 14.4017 38.7847 13.655C38.488 12.945 38.023 12.5183 37.7864 12.33Z" fill="#003EDE"/>
</svg>
