<svg width="49" height="41" viewBox="0 0 49 41" fill="none" xmlns="http://www.w3.org/2000/svg">
<path d="M25.5199 11.422C25.2166 10.4736 25.7382 9.45864 26.6866 9.1553C27.6349 8.85197 28.6499 9.37364 28.9532 10.322C29.2566 11.2686 28.7366 12.282 27.7916 12.587H27.7866C26.8382 12.892 25.8232 12.3703 25.5199 11.422Z" fill="#003DD6"/>
<path d="M27.9967 13.2453C26.6884 13.6636 25.2834 12.9403 24.8634 11.632C24.4434 10.3236 25.1684 8.91863 26.4767 8.49863C27.7851 8.07863 29.1901 8.80363 29.6101 10.112C30.0301 11.4203 29.3084 12.822 28.0034 13.2436H27.9967V13.2453ZM26.8967 9.81197C26.3117 9.99863 25.9901 10.627 26.1767 11.212C26.3634 11.797 26.9917 12.1203 27.5767 11.9336H27.5817C28.1617 11.7453 28.4834 11.117 28.2967 10.5336C28.1101 9.9503 27.4817 9.62697 26.8967 9.81363V9.81197Z" fill="#003DD6"/>
<path d="M36.4203 17.1186C36.117 16.1703 36.6386 15.1553 37.587 14.852C38.5353 14.5486 39.5503 15.0703 39.8536 16.0186C40.157 16.967 39.637 17.9786 38.692 18.2836H38.687C37.7386 18.5886 36.7236 18.067 36.4203 17.1186Z" fill="#003DD6"/>
<path d="M38.8965 18.942C37.5882 19.3603 36.1832 18.637 35.7632 17.3286C35.3448 16.0203 36.0682 14.6153 37.3765 14.1953C38.6848 13.777 40.0898 14.5003 40.5098 15.8086C40.9282 17.1136 40.2082 18.5186 38.9032 18.9403H38.8965V18.942ZM37.7965 15.5086C37.2115 15.6953 36.8898 16.3236 37.0765 16.9086C37.2632 17.4936 37.8915 17.817 38.4765 17.6303H38.4815C39.0615 17.442 39.3832 16.8136 39.1965 16.2303C39.0098 15.647 38.3815 15.3236 37.7965 15.5103V15.5086Z" fill="#003DD6"/>
<path d="M43.9906 3.04196C43.6873 2.09363 44.2089 1.07863 45.1573 0.775298C46.1056 0.471964 47.1206 0.993631 47.4239 1.94196C47.7273 2.88863 47.2073 3.90196 46.2623 4.20696H46.2573C45.3089 4.51196 44.2939 3.9903 43.9906 3.04196Z" fill="#003DD6"/>
<path d="M46.4674 4.86531C45.1591 5.28364 43.7541 4.56031 43.3341 3.25197C42.9141 1.94364 43.6391 0.538641 44.9474 0.118641C46.2558 -0.299692 47.6608 0.423641 48.0808 1.73197C48.5008 3.04031 47.7791 4.44197 46.4741 4.86364H46.4674V4.86531ZM45.3674 1.43197C44.7824 1.61864 44.4608 2.24697 44.6474 2.83197C44.8341 3.41697 45.4624 3.74031 46.0474 3.55364H46.0524C46.6324 3.36531 46.9541 2.73697 46.7674 2.15364C46.5808 1.57031 45.9524 1.24531 45.3674 1.43364V1.43197Z" fill="#003DD6"/>
<path d="M17.3168 26.1503C17.0134 25.202 17.5351 24.187 18.4834 23.8836C19.4318 23.5803 20.4468 24.102 20.7501 25.0503C21.0534 25.9986 20.5334 27.0103 19.5884 27.3153H19.5834C18.6351 27.6203 17.6201 27.0986 17.3168 26.1503Z" fill="#003DD6"/>
<path d="M19.7936 27.9753C18.4853 28.3936 17.0803 27.6703 16.6603 26.362C16.2403 25.0536 16.9653 23.6486 18.2736 23.2286C19.582 22.8086 20.987 23.5336 21.407 24.842C21.8253 26.147 21.1053 27.552 19.8003 27.9736H19.7936V27.9753ZM18.6953 24.542C18.1103 24.7286 17.7886 25.357 17.9753 25.942C18.162 26.527 18.7903 26.8503 19.3753 26.6636H19.3803C19.9603 26.4753 20.282 25.847 20.0953 25.2636C19.9086 24.6803 19.2803 24.357 18.6953 24.5436V24.542Z" fill="#003DD6"/>
<path d="M0.773802 38.1553C0.470469 37.207 0.992136 36.192 1.94047 35.8886C2.8888 35.5853 3.9038 36.107 4.20714 37.0553C4.51047 38.0036 3.99047 39.0153 3.04547 39.3203H3.04047C2.09214 39.6253 1.07714 39.1036 0.773802 38.1553Z" fill="#003DD6"/>
<path d="M3.25197 39.9786C1.94364 40.397 0.538641 39.6737 0.118641 38.3653C-0.299692 37.057 0.423641 35.652 1.73197 35.232C3.04031 34.8136 4.44531 35.537 4.86531 36.8453C5.28531 38.1537 4.56364 39.5553 3.25864 39.977H3.25197V39.9786ZM2.15197 36.5453C1.56697 36.732 1.24531 37.3603 1.43197 37.9453C1.61864 38.5303 2.24697 38.8537 2.83197 38.667H2.83697C3.41697 38.4787 3.73864 37.8503 3.55197 37.267C3.36531 36.6837 2.73697 36.3603 2.15197 36.547V36.5453Z" fill="#003DD6"/>
<path d="M8.93786 22.1353C8.63453 21.187 9.1562 20.172 10.1045 19.8687C11.0529 19.5653 12.0679 20.087 12.3712 21.0353C12.6745 21.982 12.1545 22.9953 11.2095 23.3003H11.2045C10.2562 23.6053 9.2412 23.0837 8.93786 22.1353Z" fill="#003DD6"/>
<path d="M11.4141 23.9603C10.1058 24.3786 8.70075 23.6553 8.28075 22.347C7.86242 21.0386 8.58575 19.6336 9.89408 19.2136C11.2024 18.7953 12.6074 19.5186 13.0274 20.827C13.4457 22.132 12.7257 23.537 11.4208 23.9586H11.4141V23.9603ZM10.3141 20.527C9.72908 20.7136 9.40742 21.342 9.59408 21.927C9.78075 22.512 10.4091 22.8353 10.9941 22.6486H10.9991C11.5791 22.4603 11.9007 21.832 11.7141 21.2486C11.5274 20.6653 10.8991 20.3403 10.3141 20.5286V20.527Z" fill="#003DD6"/>
<path d="M2.41014 38.632C2.24181 38.6853 2.05347 38.6753 1.88347 38.5886C1.54514 38.4136 1.41181 37.9986 1.58681 37.6603L10.1535 21.0186C10.3285 20.6803 10.7435 20.547 11.0818 20.722L18.9951 24.7953L26.4251 10.362C26.5085 10.1986 26.6535 10.077 26.8285 10.0203C27.0035 9.96363 27.1918 9.9803 27.3551 10.0636L38.1668 15.6303L45.0935 2.17696C45.2685 1.83863 45.6835 1.70529 46.0218 1.88029C46.3601 2.05529 46.4935 2.47029 46.3185 2.80863L39.0768 16.8753C38.9018 17.2136 38.4868 17.347 38.1485 17.172L27.3368 11.6053L19.9068 26.0386C19.7318 26.377 19.3168 26.5103 18.9785 26.3353L11.0651 22.262L2.81347 38.2903C2.72681 38.4603 2.57847 38.577 2.41014 38.632Z" fill="#003DD6"/>
</svg>
