<svg width="50" height="47" viewBox="0 0 50 47" fill="none" xmlns="http://www.w3.org/2000/svg">
<g clip-path="url(#clip0_819_3156)">
<path d="M10.7855 44.3638C16.2665 44.3638 20.7097 39.8913 20.7097 34.3742C20.7097 28.857 16.2665 24.3845 10.7855 24.3845C5.30454 24.3845 0.861328 28.857 0.861328 34.3742C0.861328 39.8913 5.30454 44.3638 10.7855 44.3638Z" fill="#003EDE" stroke="#003DD6" stroke-linecap="round" stroke-linejoin="round"/>
<path d="M11.3887 24.4018L16.144 10.1458" stroke="#003DD6" stroke-linecap="round" stroke-linejoin="round"/>
<path d="M19.1426 28.9804L37.5437 17.1177" stroke="#003DD6" stroke-linecap="round" stroke-linejoin="round"/>
<path d="M20.0215 38.0682L35.149 43.1151" stroke="#003DD6" stroke-linecap="round" stroke-linejoin="round"/>
<path d="M16.9534 10.1284C19.5036 10.1284 21.5709 8.04743 21.5709 5.48043C21.5709 2.91343 19.5036 0.832458 16.9534 0.832458C14.4033 0.832458 12.3359 2.91343 12.3359 5.48043C12.3359 8.04743 14.4033 10.1284 16.9534 10.1284Z" stroke="#003DD6" stroke-linecap="round" stroke-linejoin="round"/>
<path d="M36.9582 46.2022C38.1 46.2022 39.0257 45.2704 39.0257 44.121C39.0257 42.9716 38.1 42.0398 36.9582 42.0398C35.8163 42.0398 34.8906 42.9716 34.8906 44.121C34.8906 45.2704 35.8163 46.2022 36.9582 46.2022Z" stroke="#003DD6" stroke-linecap="round" stroke-linejoin="round"/>
<path d="M42.8839 20.1701C46.319 20.1701 49.1038 17.367 49.1038 13.9092C49.1038 10.4514 46.319 7.64835 42.8839 7.64835C39.4488 7.64835 36.6641 10.4514 36.6641 13.9092C36.6641 17.367 39.4488 20.1701 42.8839 20.1701Z" stroke="#003DD6" stroke-linecap="round" stroke-linejoin="round"/>
<path d="M43.3491 26.1015H37.5255C37.0498 26.1015 36.6641 26.4897 36.6641 26.9686V32.8306C36.6641 33.3095 37.0498 33.6978 37.5255 33.6978H43.3491C43.8249 33.6978 44.2106 33.3095 44.2106 32.8306V26.9686C44.2106 26.4897 43.8249 26.1015 43.3491 26.1015Z" fill="#003DD6"/>
<path d="M4.03121 9.33063H1.70522C1.22945 9.33063 0.84375 9.71887 0.84375 10.1978V12.5391C0.84375 13.018 1.22945 13.4063 1.70522 13.4063H4.03121C4.50699 13.4063 4.89268 13.018 4.89268 12.5391V10.1978C4.89268 9.71887 4.50699 9.33063 4.03121 9.33063Z" fill="#003DD6"/>
</g>
<defs>
<clipPath id="clip0_819_3156">
<rect width="50" height="47" fill="white"/>
</clipPath>
</defs>
</svg>
