<svg width="50" height="50" viewBox="0 0 50 50" fill="none" xmlns="http://www.w3.org/2000/svg">
<path d="M37.1942 19.4083H30.1625C27.4342 19.4083 25.2158 21.6267 25.2158 24.3533C25.2158 26.725 23.3175 28.6733 20.9842 28.695C19.8358 28.7067 18.7525 28.2667 17.9342 27.4567C17.1158 26.6467 16.6658 25.5683 16.6658 24.42V17.8333C16.6658 17.025 16.2458 16.305 15.5425 15.9067C14.8375 15.5083 14.0042 15.52 13.3108 15.9367L10.5225 17.6117C8.84417 18.6117 7.8025 20.4483 7.8025 22.4033V25.2883L2.47417 28.365C1.71417 28.8017 1.1725 29.5083 0.945837 30.355C0.720837 31.1983 0.837504 32.08 1.27584 32.8333L7.07917 42.8883C7.6825 43.935 8.78417 44.5217 9.91584 44.5217C10.4708 44.5217 11.0325 44.3817 11.5475 44.085L18.8308 39.88H28.4875C31.2475 39.88 33.5475 37.87 33.9992 35.2367H34.2925C36.0958 35.2367 37.5625 33.77 37.5625 31.9667V28.2467C38.8725 28.0667 39.8842 26.94 39.8842 25.5817V22.0983C39.8842 20.615 38.6775 19.4083 37.1942 19.4083ZM37.9875 25.5817C37.9875 26.0183 37.6308 26.3733 37.1942 26.3733H35.6642V31.9667C35.6642 32.7233 35.0492 33.34 34.2925 33.34H32.1825V34.2883C32.1825 36.325 30.5242 37.9833 28.4875 37.9833H18.3208L10.6008 42.4417C9.9425 42.82 9.10084 42.595 8.72417 41.94L2.9175 31.8817C2.73417 31.565 2.68584 31.1967 2.77917 30.8433C2.87417 30.4883 3.1025 30.1933 3.42084 30.01L9.70084 26.3833V22.4033C9.70084 21.1133 10.3875 19.9017 11.4975 19.24L14.2892 17.5633C14.3475 17.5283 14.4025 17.515 14.4508 17.515C14.5175 17.515 14.5725 17.5383 14.6075 17.5583C14.6675 17.5933 14.7675 17.6733 14.7675 17.8333V24.42C14.7675 26.0783 15.4192 27.635 16.5992 28.805C17.7658 29.96 19.3042 30.5933 20.9408 30.5933H21.0025C24.3725 30.56 27.1142 27.7617 27.1142 24.3533C27.1142 22.6733 28.4808 21.3067 30.1625 21.3067H37.1942C37.6308 21.3067 37.9875 21.6617 37.9875 22.0983V25.5817Z" fill="#003DD6"/>
<path d="M47.5379 21.635L43.5212 23.955C42.8512 24.3417 42.0496 24.3417 41.3796 23.955C40.7079 23.5667 40.3079 22.8733 40.3079 22.0983C40.3079 20.3817 38.9096 18.985 37.1929 18.985H30.2279C27.2296 18.985 24.7912 21.4233 24.7912 24.42C24.7912 25.4617 24.3829 26.4367 23.6412 27.1667C22.9146 27.88 21.9579 28.2717 20.9412 28.2717H20.8762C18.7879 28.2367 17.0879 26.4883 17.0879 24.3733V15.2567C17.0879 14.115 17.6646 13.0767 18.6279 12.4833L21.0546 10.9683C21.9529 10.4133 22.9762 10.1217 24.0162 10.1217H31.1779L38.4596 5.91667C40.0262 5.01501 42.0296 5.55334 42.9279 7.11501L48.7329 17.17C49.6279 18.7283 49.0929 20.73 47.5379 21.635Z" fill="#003DD6"/>
</svg>
