<svg width="50" height="50" viewBox="0 0 50 50" fill="none" xmlns="http://www.w3.org/2000/svg">
<path d="M2.9504 27.65C2.64873 27.65 2.34373 27.585 2.05373 27.45C0.995399 26.9533 0.538732 25.695 1.03373 24.6367C1.24707 24.18 6.3604 13.4433 15.0104 12.8917C18.2854 12.6833 24.9804 12.6233 34.9054 12.7167C36.0754 12.7283 37.0154 13.685 37.0037 14.855C36.9921 16.0183 36.0471 16.9533 34.8854 16.9533C34.8787 16.9533 34.8721 16.9533 34.8654 16.9533C25.1804 16.8617 18.4087 16.92 15.2804 17.12C12.1921 17.3167 9.5804 19.7333 7.93207 21.725C5.99707 24.065 4.88207 26.41 4.87207 26.4333C4.5104 27.2 3.74873 27.6517 2.95207 27.6517L2.9504 27.65Z" fill="#003EDE"/>
<path d="M32.3047 23.265L47.048 15.0067L32.5247 6.36667L32.3047 23.265Z" fill="#003EDE"/>
<path d="M23.3079 38.3933C20.8779 38.3933 18.1379 38.3783 15.0945 38.35C13.9245 38.3383 12.9845 37.3817 12.9962 36.2117C13.0079 35.0417 13.9629 34.1 15.1345 34.1133C24.8195 34.2033 31.5929 34.1467 34.7195 33.9467C37.8079 33.75 40.4195 31.3333 42.0679 29.3417C44.0029 27.0017 45.1179 24.6567 45.1279 24.6333C45.6262 23.5767 46.8862 23.12 47.9445 23.6167C49.0029 24.1133 49.4595 25.3717 48.9645 26.43C48.7512 26.8867 43.6379 37.6233 34.9879 38.175C32.7179 38.32 28.8029 38.3933 23.3062 38.3933H23.3079Z" fill="#003EDE"/>
<path d="M17.6945 27.8L2.95117 36.06L17.4745 44.7L17.6945 27.8Z" fill="#003EDE"/>
</svg>
