<svg width="50" height="50" viewBox="0 0 50 50" fill="none" xmlns="http://www.w3.org/2000/svg">
<path d="M20.9504 27.1167C20.9504 27.1167 20.947 27.105 20.9454 27.0983C20.9404 27.0783 20.9337 27.06 20.9254 27.0417C20.8937 26.9683 20.842 26.9033 20.777 26.8567C20.772 26.8517 20.7654 26.8467 20.7587 26.8433C20.7587 26.8417 20.7587 26.84 20.7554 26.84C20.7454 26.835 20.7354 26.8283 20.7254 26.8233H20.7237L20.7187 26.8183L20.7104 26.815L17.187 25.0533V19.75C17.187 19.58 17.0904 19.425 16.9387 19.3483L16.2904 19.025L14.5004 18.13C14.372 18.065 14.2204 18.0667 14.0937 18.1317L2.62868 24.0667C2.61035 24.075 2.59202 24.085 2.57368 24.0967C2.54702 24.1133 2.52202 24.1317 2.50035 24.1533C2.48535 24.1667 2.47202 24.1817 2.46035 24.1967C2.45035 24.2083 2.44035 24.2217 2.43202 24.235C2.42535 24.245 2.41868 24.2567 2.41368 24.2683C2.40535 24.2817 2.39868 24.295 2.39368 24.31C2.39368 24.3117 2.39035 24.315 2.39035 24.3183C2.38368 24.3333 2.37868 24.3483 2.37535 24.365C2.37035 24.3817 2.36702 24.3983 2.36535 24.415C2.36202 24.4333 2.36035 24.4533 2.36035 24.4733V24.4817C2.36202 24.65 2.45702 24.8033 2.60868 24.88L3.25702 25.2033L13.9537 30.5517L14.2004 30.675C14.327 30.7383 14.4754 30.7383 14.602 30.675L14.8487 30.5517L20.5137 27.72L20.7137 27.62C20.8654 27.5433 20.962 27.3883 20.962 27.2183C20.962 27.1833 20.9587 27.15 20.9504 27.1167ZM14.402 29.7733L3.79702 24.4717L14.3037 19.0333L16.2904 20.0267V25.33C16.2904 25.5 16.387 25.655 16.5387 25.7317L19.512 27.2183L14.402 29.7733Z" fill="#003EDE"/>
<path d="M25.2087 29.065C25.0804 29 24.9287 29.0017 24.802 29.065L24.0187 29.47L21.5237 30.7633C21.5037 30.7717 21.4837 30.7833 21.4637 30.795C21.4604 30.7967 21.457 30.8 21.4537 30.8017C21.4454 30.8067 21.4354 30.8133 21.4287 30.82C21.4254 30.8217 21.4237 30.8233 21.422 30.825C21.417 30.8283 21.412 30.8333 21.407 30.8383C21.397 30.845 21.3887 30.8533 21.3804 30.8633C21.377 30.865 21.3754 30.8667 21.3737 30.87C21.3604 30.8817 21.3504 30.895 21.3404 30.9083C21.3354 30.9133 21.332 30.92 21.3287 30.9267C21.322 30.9333 21.317 30.94 21.3137 30.9483C21.307 30.9583 21.302 30.9683 21.2987 30.9783C21.2937 30.9833 21.2904 30.99 21.2887 30.9966C21.2887 30.9966 21.2887 30.9983 21.287 30.9983V31.0016C21.2704 31.0383 21.2604 31.075 21.2554 31.115C21.252 31.135 21.2504 31.1567 21.2504 31.1767V38.0917L14.8487 41.2933L14.402 41.5166L13.9537 41.2916L3.25702 35.9433V25.2017L13.9537 30.55L14.2004 30.6733C14.327 30.7366 14.4754 30.7366 14.602 30.6733L14.8487 30.55L20.5137 27.7183L20.7137 27.6183C20.8654 27.5417 20.962 27.3867 20.962 27.2167C20.962 27.1817 20.9587 27.1483 20.9504 27.115C20.9487 27.1083 20.947 27.1033 20.9454 27.0967C20.9404 27.0767 20.9337 27.0583 20.9254 27.04C20.8937 26.9667 20.842 26.9017 20.777 26.855C20.772 26.85 20.7654 26.845 20.7587 26.8417C20.7587 26.84 20.7587 26.8383 20.7554 26.8383C20.7454 26.8333 20.7354 26.8266 20.7254 26.8216H20.7237L20.7187 26.8166L20.7104 26.8133C20.5854 26.7533 20.4387 26.7533 20.3137 26.8133L19.512 27.215L14.402 29.77L3.79702 24.4683L3.00868 24.0733C2.88868 24.015 2.75035 24.0117 2.62868 24.0633C2.61035 24.0717 2.59202 24.0817 2.57368 24.0933C2.54702 24.11 2.52202 24.1283 2.50035 24.15C2.48535 24.1633 2.47202 24.1783 2.46035 24.1933C2.45035 24.205 2.44035 24.2183 2.43202 24.2317C2.42535 24.2417 2.41868 24.2533 2.41368 24.265C2.40535 24.2783 2.39868 24.2917 2.39368 24.3067C2.39368 24.3083 2.39035 24.3117 2.39035 24.315C2.38368 24.33 2.37868 24.345 2.37535 24.3617C2.37035 24.3783 2.36702 24.395 2.36535 24.4117C2.36202 24.43 2.36035 24.45 2.36035 24.47V36.22C2.36035 36.3883 2.45702 36.545 2.60868 36.62L14.187 42.41C14.222 42.4283 14.2604 42.4417 14.2987 42.4517C14.3154 42.455 14.332 42.4583 14.3504 42.46C14.367 42.4616 14.3837 42.4633 14.402 42.4633C14.4187 42.4633 14.437 42.4616 14.4537 42.46C14.4704 42.4583 14.487 42.455 14.5037 42.4517C14.5204 42.4483 14.5354 42.4433 14.5504 42.4383C14.572 42.43 14.5937 42.42 14.6154 42.41L21.2504 39.0917L21.9004 38.7667C22.052 38.6917 22.147 38.5366 22.147 38.3666V31.4466L22.687 31.1667L25.012 29.965L25.2137 29.86C25.3637 29.7833 25.457 29.6267 25.4554 29.4583C25.4554 29.29 25.3587 29.1366 25.2087 29.0616V29.065Z" fill="#003EDE"/>
<path d="M14.8491 30.275V42.0183C14.8491 42.1883 14.7541 42.3367 14.6158 42.4133C14.5941 42.4233 14.5724 42.4333 14.5508 42.4417C14.5358 42.4467 14.5208 42.4517 14.5041 42.455C14.4874 42.4583 14.4708 42.4617 14.4541 42.4633C14.4374 42.465 14.4191 42.4667 14.4024 42.4667C14.3841 42.4667 14.3674 42.465 14.3508 42.4633C14.3324 42.4617 14.3158 42.4583 14.2991 42.455C14.2608 42.445 14.2224 42.4317 14.1874 42.4133C14.0491 42.3367 13.9541 42.1883 13.9541 42.0183V30.275C13.9541 30.0267 14.1541 29.8267 14.4024 29.8267C14.6508 29.8267 14.8491 30.0267 14.8491 30.275Z" fill="#003EDE"/>
<path d="M33.4917 36.5733L33.2917 36.4733L26.295 32.975L22.6867 31.17L25.0117 29.9683L25.895 30.41L28.13 31.5283C28.13 31.5283 28.1367 31.5317 28.14 31.5333C28.1467 31.5367 28.1533 31.5383 28.16 31.5417C28.1767 31.5483 28.1917 31.5533 28.2083 31.5583C28.2183 31.5617 28.2283 31.5633 28.2383 31.565C28.2483 31.5683 28.2583 31.57 28.2683 31.5717H28.2783C28.295 31.5733 28.3133 31.575 28.33 31.575C28.3467 31.575 28.365 31.5733 28.3817 31.5717H28.3917C28.4017 31.57 28.4117 31.5683 28.4217 31.565C28.4283 31.565 28.435 31.5633 28.4417 31.5617C28.445 31.56 28.45 31.56 28.4533 31.5583C28.47 31.5533 28.4867 31.5483 28.5017 31.5417C28.5083 31.5383 28.515 31.5367 28.5217 31.5333C28.525 31.5317 28.5283 31.53 28.5317 31.5283C28.5433 31.5217 28.555 31.515 28.5667 31.5083C28.6983 31.4267 28.7783 31.2817 28.7783 31.1267V30.4017L28.33 30.6267L27.8817 30.4017L26.295 29.6083L25.2083 29.065C25.08 29 24.9283 29.0017 24.8017 29.065L24.0183 29.47L21.5233 30.7633C21.5033 30.7717 21.4833 30.7833 21.4633 30.795C21.46 30.7967 21.4567 30.8 21.4533 30.8017C21.445 30.8067 21.435 30.8133 21.4283 30.82C21.425 30.8217 21.4233 30.8233 21.4217 30.825C21.4167 30.8283 21.4117 30.8333 21.4067 30.8383C21.3967 30.845 21.3883 30.8533 21.38 30.8633C21.3767 30.865 21.375 30.8667 21.3733 30.87C21.36 30.8817 21.35 30.895 21.34 30.9083C21.335 30.9133 21.3317 30.92 21.3283 30.9267C21.3217 30.9333 21.3167 30.94 21.3133 30.9483C21.3067 30.9583 21.3017 30.9683 21.2983 30.9783C21.2933 30.9833 21.29 30.99 21.2883 30.9967C21.2883 30.9967 21.2883 30.9983 21.2867 30.9983V31.0017C21.27 31.0383 21.26 31.075 21.255 31.115C21.2517 31.135 21.25 31.1567 21.25 31.1767V31.18C21.2517 31.3483 21.3483 31.5017 21.4983 31.5767L22.1467 31.9017L32.8433 37.25L33.0917 37.3733C33.155 37.405 33.2233 37.42 33.2917 37.42C33.36 37.42 33.4283 37.405 33.4917 37.3733L33.74 37.25V36.9717C33.74 36.8017 33.6433 36.6467 33.4917 36.5717V36.5733ZM37.6617 26.9633L36.6583 27.465L43.9833 31.1267L44.785 30.7267C44.9017 30.6683 45.0367 30.6633 45.1567 30.7117L37.6617 26.9633ZM28.2383 31.565C28.2483 31.5683 28.2583 31.57 28.2683 31.5717H28.2783C28.265 31.57 28.2517 31.5683 28.2383 31.565ZM28.2783 31.5717C28.295 31.5733 28.3133 31.575 28.33 31.575C28.3467 31.575 28.365 31.5733 28.3817 31.5717C28.3483 31.575 28.3133 31.575 28.2783 31.5717ZM28.3817 31.5717H28.3917C28.4017 31.57 28.4117 31.5683 28.4217 31.565C28.4083 31.5683 28.395 31.57 28.3817 31.5717Z" fill="#003EDE"/>
<path d="M33.4917 36.5733L33.2917 36.4733L26.295 32.975L22.6867 31.17L21.9 30.7767C21.78 30.7167 21.6433 30.715 21.5233 30.765C21.5033 30.7733 21.4833 30.785 21.4633 30.7967C21.46 30.7983 21.4567 30.8017 21.4533 30.8033C21.445 30.8083 21.435 30.815 21.4283 30.8217C21.425 30.8233 21.4233 30.825 21.4217 30.8267C21.4167 30.83 21.4117 30.835 21.4067 30.84C21.3967 30.8467 21.3883 30.855 21.38 30.865C21.3767 30.8667 21.375 30.8683 21.3733 30.8717C21.36 30.8833 21.35 30.8967 21.34 30.91C21.335 30.915 21.3317 30.9217 21.3283 30.9283C21.3217 30.935 21.3167 30.9417 21.3133 30.95C21.3067 30.96 21.3017 30.97 21.2983 30.98C21.2933 30.985 21.29 30.9917 21.2883 30.9983C21.2867 31 21.2867 31.0017 21.2867 31.0033C21.27 31.04 21.26 31.0767 21.255 31.1167C21.2517 31.1367 21.25 31.1583 21.25 31.1783V42.9217C21.25 43.0917 21.3467 43.2467 21.4983 43.3233L33.0917 49.12C33.0917 49.12 33.0967 49.1217 33.0983 49.1233C33.1117 49.13 33.1233 49.135 33.1367 49.1383C33.1583 49.1467 33.1783 49.1533 33.2 49.1567C33.2133 49.16 33.2267 49.1617 33.24 49.1633C33.2567 49.165 33.275 49.1667 33.2917 49.1667C33.3083 49.1667 33.3267 49.165 33.3433 49.1633C33.3567 49.1617 33.37 49.16 33.3833 49.1567C33.405 49.1533 33.4267 49.1467 33.4467 49.1383C33.46 49.135 33.4717 49.13 33.485 49.1233C33.4867 49.1217 33.49 49.1217 33.4917 49.12C33.5033 49.1133 33.515 49.1067 33.5267 49.1C33.66 49.0183 33.74 48.8733 33.74 48.7183V36.9733C33.74 36.8033 33.6433 36.6483 33.4917 36.5733ZM22.1467 31.9033L32.8433 37.2517V47.9933L22.1467 42.645V31.9033Z" fill="#003EDE"/>
<path d="M45.1871 31.5283L44.5371 31.8533V42.595L33.7404 47.9933V36.9733C33.7404 36.8033 33.6437 36.6483 33.4921 36.5733L33.2921 36.4733L33.0921 36.5733C32.9404 36.6483 32.8438 36.8033 32.8438 36.9733V48.7183C32.8438 48.8733 32.9237 49.0183 33.0571 49.1C33.0687 49.1067 33.0804 49.1133 33.0921 49.12C33.0938 49.1217 33.0971 49.1217 33.0987 49.1233C33.1121 49.13 33.1238 49.135 33.1371 49.1383C33.1588 49.1467 33.1787 49.1533 33.2004 49.1567C33.2137 49.16 33.2271 49.1617 33.2404 49.1633C33.2571 49.165 33.2754 49.1667 33.2921 49.1667C33.3088 49.1667 33.3271 49.165 33.3437 49.1633C33.3571 49.1617 33.3704 49.16 33.3838 49.1567C33.4054 49.1533 33.4271 49.1467 33.4471 49.1383C33.4604 49.135 33.4721 49.13 33.4854 49.1233C33.4871 49.1217 33.4904 49.1217 33.4921 49.12L45.1871 43.2717C45.3387 43.1967 45.4338 43.0417 45.4338 42.8717V31.1267C45.4338 31.2967 45.3387 31.4517 45.1871 31.5283ZM45.2221 30.745C45.2104 30.7383 45.1987 30.7317 45.1871 30.7267C45.2054 30.7367 45.2238 30.7467 45.2404 30.7583C45.2354 30.7533 45.2287 30.7483 45.2221 30.745Z" fill="#003EDE"/>
<path d="M45.4337 31.1267C45.4337 31.2967 45.3387 31.4517 45.187 31.5283L44.537 31.8533V42.595L33.7403 47.9933V36.9733C33.7403 36.8033 33.6437 36.6483 33.492 36.5733L33.292 36.4733L43.9837 31.1267L44.7853 30.7267C44.902 30.6683 45.037 30.6633 45.157 30.7117L45.187 30.7267C45.2053 30.7367 45.2237 30.7467 45.2403 30.7583C45.262 30.7717 45.282 30.7883 45.2987 30.8067C45.312 30.8183 45.3237 30.8317 45.3337 30.845C45.342 30.8567 45.3503 30.8667 45.3587 30.8783C45.3737 30.9 45.3853 30.9217 45.3953 30.9467C45.4003 30.9567 45.4037 30.9667 45.407 30.9783C45.4187 31.005 45.4253 31.035 45.4287 31.0633C45.432 31.085 45.4337 31.105 45.4337 31.1267Z" fill="#003EDE"/>
<path d="M30.29 8.30333C30.2934 8.26 30.2984 8.21666 30.3034 8.17333L28.43 7.23666C28.3017 7.17333 28.15 7.175 28.0234 7.24L16.5584 13.175C16.5467 13.1817 16.535 13.1867 16.5234 13.1933C16.5084 13.2017 16.4934 13.2117 16.4784 13.2217C16.4617 13.2333 16.4467 13.2467 16.4317 13.26C16.4167 13.2733 16.4034 13.2883 16.39 13.305C16.38 13.3167 16.37 13.33 16.3617 13.3433C16.355 13.3533 16.3484 13.365 16.3434 13.3767C16.335 13.39 16.3284 13.4033 16.3234 13.4183C16.3217 13.4183 16.32 13.4233 16.32 13.4267C16.3134 13.4417 16.3084 13.4567 16.305 13.4733C16.3 13.49 16.2967 13.5067 16.295 13.5233C16.2917 13.5417 16.29 13.5617 16.29 13.5817V13.59C16.2917 13.7583 16.3867 13.9117 16.5384 13.9867L17.1867 14.3117L27.8817 19.6583V19.3833C27.8817 19.2133 27.9784 19.0583 28.13 18.9817L28.33 18.8817L17.7267 13.58L28.2334 8.14166L30.2567 9.15166C30.2567 9.12833 30.2567 9.105 30.2567 9.08333V9.03666C30.2567 8.775 30.27 8.535 30.2917 8.30333H30.29Z" fill="#003EDE"/>
<path d="M28.095 31.5083C27.9634 31.4267 27.8817 31.2817 27.8817 31.1267V30.4017L26.295 29.6083L25.2084 29.065C25.08 29 24.9284 29.0017 24.8017 29.065L24.0184 29.47L25.0117 29.9667L25.895 30.4083L28.13 31.5267C28.1184 31.52 28.1067 31.5133 28.095 31.5067V31.5083ZM28.33 30.6267L27.8817 30.4017L26.295 29.6083L25.2084 29.065C25.08 29 24.9284 29.0017 24.8017 29.065L24.0184 29.47L25.0117 29.9667L25.895 30.4083L28.13 31.5267C28.13 31.5267 28.1367 31.53 28.14 31.5317C28.1467 31.535 28.1534 31.5367 28.16 31.54C28.1767 31.5467 28.1917 31.5517 28.2084 31.5567C28.2184 31.56 28.2284 31.5617 28.2384 31.5633C28.2517 31.5667 28.265 31.5683 28.2784 31.57C28.295 31.5717 28.3134 31.5733 28.33 31.5733C28.3467 31.5733 28.365 31.5717 28.3817 31.57H28.3917C28.4017 31.5683 28.4117 31.5667 28.4217 31.5633C28.4284 31.5633 28.435 31.5617 28.4417 31.56C28.445 31.5583 28.45 31.5583 28.4534 31.5567C28.47 31.5517 28.4867 31.5467 28.5017 31.54C28.5084 31.5367 28.515 31.535 28.5217 31.5317C28.525 31.53 28.5284 31.5283 28.5317 31.5267C28.5434 31.52 28.555 31.5133 28.5667 31.5067C28.6984 31.425 28.7784 31.28 28.7784 31.125V30.4L28.33 30.625V30.6267ZM20.945 27.0983C20.94 27.0783 20.9334 27.06 20.925 27.0417C20.8934 26.9683 20.8417 26.9033 20.7767 26.8567C20.7717 26.8517 20.765 26.8467 20.7584 26.8433C20.7584 26.8417 20.7584 26.84 20.755 26.84C20.745 26.835 20.735 26.8283 20.725 26.8233H20.7234L20.7184 26.8183L20.71 26.815L17.1867 25.0533V14.3117L27.8817 19.66V19.3833C27.8817 19.2133 27.9784 19.0583 28.13 18.9817L28.33 18.8817L17.7267 13.58L16.9384 13.185C16.8184 13.1267 16.68 13.1233 16.5584 13.175C16.5467 13.1817 16.535 13.1867 16.5234 13.1933C16.515 13.1967 16.5084 13.2 16.5017 13.205C16.4934 13.21 16.485 13.215 16.4784 13.2217C16.4617 13.2333 16.4467 13.2467 16.4317 13.26C16.4167 13.2733 16.4034 13.2883 16.39 13.305C16.38 13.3167 16.37 13.33 16.3617 13.3433C16.355 13.3533 16.3484 13.365 16.3434 13.3767C16.335 13.39 16.3284 13.4033 16.3234 13.4183C16.3217 13.4183 16.32 13.4233 16.32 13.4267C16.3134 13.4417 16.3084 13.4567 16.305 13.4733C16.3 13.49 16.2967 13.5067 16.295 13.5233C16.2917 13.5417 16.29 13.5617 16.29 13.5817V25.33C16.29 25.5 16.3867 25.655 16.5384 25.7317L19.5117 27.2183L20.5134 27.72L20.7134 27.62C20.865 27.5433 20.9617 27.3883 20.9617 27.2183C20.9617 27.1833 20.9584 27.15 20.95 27.1167C20.9484 27.11 20.9467 27.105 20.945 27.0983ZM28.095 31.5083C27.9634 31.4267 27.8817 31.2817 27.8817 31.1267V30.4017L26.295 29.6083L25.2084 29.065C25.08 29 24.9284 29.0017 24.8017 29.065L24.0184 29.47L25.0117 29.9667L25.895 30.4083L28.13 31.5267C28.1184 31.52 28.1067 31.5133 28.095 31.5067V31.5083Z" fill="#003EDE"/>
<path d="M25.2086 29.065C25.0803 29 24.9286 29.0017 24.802 29.065L24.0186 29.47L21.5236 30.7634C21.5036 30.7717 21.4836 30.7834 21.4636 30.795C21.4603 30.7967 21.457 30.8 21.4536 30.8017C21.4453 30.8067 21.4353 30.8134 21.4286 30.82C21.4253 30.8217 21.4236 30.8234 21.422 30.825C21.417 30.8284 21.412 30.8334 21.407 30.8384C21.397 30.845 21.3886 30.8534 21.3803 30.8634C21.377 30.865 21.3753 30.8667 21.3736 30.87C21.3603 30.8817 21.3503 30.895 21.3403 30.9084C21.3353 30.9134 21.332 30.92 21.3286 30.9267C21.322 30.9334 21.317 30.94 21.3136 30.9484C21.307 30.9584 21.302 30.9684 21.2986 30.9784C21.2936 30.9834 21.2903 30.99 21.2886 30.9967C21.2886 30.9967 21.2886 30.9984 21.287 30.9984V31.0017C21.2703 31.0384 21.2603 31.075 21.2553 31.115C21.252 31.135 21.2503 31.1567 21.2503 31.1767V38.0917L14.8486 41.2934V30.55L20.5136 27.7184L20.7136 27.6184C20.8653 27.5417 20.962 27.3867 20.962 27.2167C20.962 27.1817 20.9586 27.1484 20.9503 27.115C20.9486 27.1084 20.947 27.1034 20.9453 27.0967C20.9403 27.0767 20.9336 27.0584 20.9253 27.04C20.8936 26.9667 20.842 26.9017 20.777 26.855C20.7703 26.85 20.7653 26.845 20.7586 26.8417C20.7586 26.84 20.7586 26.8384 20.7553 26.8384C20.7453 26.8334 20.7353 26.8267 20.7253 26.8217L25.2086 29.0634V29.065Z" fill="#003EDE"/>
<path d="M46.4405 5.87168C46.0255 4.89001 45.4305 4.00668 44.6722 3.25001C43.9155 2.49168 43.0322 1.89668 42.0505 1.48168C41.0339 1.05168 39.9522 0.833344 38.8389 0.833344C37.7255 0.833344 36.6455 1.05168 35.6272 1.48168C34.6455 1.89668 33.7622 2.49168 33.0055 3.25001C31.6255 4.63001 30.7939 6.41334 30.6222 8.33334C30.6005 8.56668 30.5905 8.80001 30.5889 9.03668V9.08334C30.5889 9.16168 30.5889 9.24168 30.5922 9.32001C30.5955 9.41501 30.5989 9.50834 30.6055 9.60168C30.6089 9.65668 30.6122 9.71168 30.6189 9.76501C30.6189 9.79168 30.6222 9.81834 30.6255 9.84501C30.6289 9.90334 30.6355 9.96168 30.6422 10.0183C30.6455 10.0517 30.6489 10.085 30.6539 10.1183C30.6605 10.1767 30.6689 10.2333 30.6772 10.2917C30.6805 10.315 30.6839 10.34 30.6889 10.3633C30.6972 10.42 30.7055 10.4767 30.7172 10.5317C30.7755 10.865 30.8539 11.1917 30.9539 11.5117C30.9722 11.5783 30.9939 11.645 31.0172 11.71C31.0222 11.7267 31.0272 11.7417 31.0339 11.7583C31.0505 11.81 31.0672 11.86 31.0872 11.91C31.1272 12.0217 31.1689 12.13 31.2155 12.24C31.2389 12.3017 31.2655 12.3617 31.2922 12.42C31.3239 12.495 31.3589 12.5683 31.3939 12.6417C31.4989 12.8617 31.6139 13.0783 31.7389 13.2883C31.7655 13.335 31.7939 13.3817 31.8222 13.4267C31.8405 13.4567 31.8589 13.4867 31.8789 13.5167C31.9072 13.5617 31.9372 13.6083 31.9689 13.6533C31.9822 13.675 31.9972 13.6967 32.0139 13.72C32.0422 13.765 32.0739 13.81 32.1072 13.855C32.1455 13.91 32.1855 13.965 32.2272 14.02C32.2739 14.085 32.3222 14.1467 32.3722 14.2083C32.4405 14.2967 32.5122 14.3817 32.5839 14.4667C32.6839 14.5833 32.7872 14.6967 32.8939 14.8067C32.9855 14.9017 33.0789 14.9933 33.1755 15.085C33.2239 15.1317 33.2739 15.1767 33.3239 15.2217C33.3772 15.27 33.4305 15.3167 33.4872 15.3633C33.5272 15.3983 33.5689 15.4333 33.6105 15.465C33.6639 15.5117 33.7189 15.555 33.7739 15.5967C33.8289 15.64 33.8855 15.6833 33.9422 15.7233C34.0372 15.795 34.1355 15.8633 34.2339 15.93C34.4639 16.085 34.7022 16.23 34.9489 16.3617C35.0172 16.3983 35.0872 16.435 35.1572 16.47C35.3289 16.5567 35.5039 16.635 35.6822 16.7083C35.7439 16.7333 35.8055 16.7583 35.8672 16.7817C35.9389 16.81 36.0122 16.8383 36.0855 16.8633C36.1872 16.8983 36.2889 16.9333 36.3905 16.9633C36.4489 16.9817 36.5089 17 36.5689 17.0167C36.6689 17.045 36.7689 17.0717 36.8705 17.0967C36.9239 17.11 36.9772 17.1217 37.0305 17.1333C37.0555 17.14 37.0805 17.1467 37.1072 17.1517C37.1605 17.1633 37.2139 17.1733 37.2672 17.1833C37.3722 17.205 37.4789 17.2233 37.5855 17.2383C37.6639 17.2517 37.7439 17.2617 37.8255 17.2717C37.8872 17.28 37.9489 17.2867 38.0105 17.2917C38.0472 17.2967 38.0839 17.3 38.1205 17.3033C38.3589 17.325 38.5972 17.335 38.8372 17.335C38.9422 17.335 39.0472 17.3333 39.1522 17.3283C39.2572 17.325 39.3622 17.3183 39.4672 17.31C39.5039 17.3083 39.5389 17.305 39.5755 17.3017C39.7472 17.2867 39.9205 17.265 40.0905 17.24C40.2189 17.22 40.3455 17.1983 40.4722 17.1717C41.2089 17.025 41.9205 16.7767 42.5922 16.4317C43.3605 16.0383 44.0589 15.53 44.6705 14.9183C45.4289 14.16 46.0239 13.2783 46.4389 12.295C46.8689 11.2783 47.0872 10.1967 47.0872 9.08334C47.0872 7.97001 46.8689 6.89001 46.4389 5.87168H46.4405ZM44.0389 14.2833C42.9222 15.4 41.5105 16.1167 39.9572 16.3533C39.5889 16.41 39.2139 16.4383 38.8389 16.4383C37.6305 16.4383 36.4322 16.1383 35.3739 15.5717C32.9755 14.2883 31.4855 11.8017 31.4855 9.08334V9.04168C31.4972 7.09334 32.2605 5.26168 33.6389 3.88334C35.0272 2.49501 36.8739 1.73001 38.8389 1.73001C40.8039 1.73001 42.6505 2.49501 44.0389 3.88334C45.4272 5.27334 46.1922 7.12001 46.1922 9.08334C46.1922 11.0467 45.4272 12.895 44.0389 14.2833Z" fill="#003EDE"/>
<path d="M28.3302 30.6267L27.8818 30.4017V31.1267C27.8818 31.2817 27.9635 31.4267 28.0952 31.5083C28.1068 31.515 28.1185 31.5217 28.1302 31.5283C28.1335 31.53 28.1368 31.5317 28.1402 31.5333C28.1468 31.5367 28.1535 31.5383 28.1602 31.5417C28.1768 31.5483 28.1918 31.5533 28.2085 31.5583C28.2185 31.5617 28.2285 31.5633 28.2385 31.565C28.2485 31.5683 28.2585 31.57 28.2685 31.5717H28.2785C28.2952 31.5733 28.3135 31.575 28.3302 31.575C28.3468 31.575 28.3652 31.5733 28.3818 31.5717C28.3952 31.57 28.4085 31.5683 28.4218 31.565C28.4285 31.565 28.4352 31.5633 28.4418 31.5617C28.4452 31.56 28.4502 31.56 28.4535 31.5583C28.4702 31.5533 28.4868 31.5483 28.5018 31.5417C28.5085 31.5383 28.5152 31.5367 28.5218 31.5333C28.5252 31.5317 28.5285 31.53 28.5318 31.5283C28.5435 31.5217 28.5552 31.515 28.5668 31.5083C28.6985 31.4267 28.7785 31.2817 28.7785 31.1267V30.4017L28.3302 30.6267Z" fill="#003EDE"/>
<path d="M40.4735 17.5117V25.28C40.4735 25.45 40.3768 25.605 40.2252 25.6817L37.6618 26.9633L36.6585 27.465L28.5318 31.5283C28.5435 31.5217 28.5552 31.515 28.5668 31.5083C28.6985 31.4267 28.7785 31.2817 28.7785 31.1267V30.4017L28.3302 30.6267L27.8818 30.4017V19.3833C27.8818 19.2133 27.9785 19.0583 28.1302 18.9817L28.3302 18.8817H28.3318L33.8918 16.1C33.9435 16.1367 33.9952 16.17 34.0468 16.205L34.1335 16.2633H34.1352C34.3535 16.4067 34.5752 16.5383 34.7918 16.655C34.8635 16.6933 34.9368 16.7317 35.0085 16.7683C35.1768 16.8533 35.3568 16.9333 35.5585 17.0167C35.6218 17.0433 35.6868 17.0683 35.7468 17.0917C35.8235 17.1217 35.9018 17.1517 35.9785 17.1783C36.0852 17.215 36.1902 17.2517 36.2918 17.2817C36.3535 17.3 36.4185 17.32 36.4802 17.3367C36.5835 17.3667 36.6868 17.395 36.7902 17.42C36.8468 17.435 36.9052 17.4467 36.9452 17.455C36.9785 17.4633 37.0118 17.4733 37.0368 17.4767C37.0935 17.49 37.1502 17.5 37.2002 17.51C37.3102 17.5317 37.4235 17.5517 37.5302 17.5667C37.6152 17.5817 37.7002 17.5917 37.7818 17.6017C37.8468 17.61 37.9118 17.6183 37.9752 17.6233C38.0118 17.6283 38.0468 17.6317 38.0918 17.635C38.3318 17.6567 38.5835 17.6683 38.8385 17.6683C38.9485 17.6683 39.0585 17.6667 39.1635 17.6617C39.2735 17.6583 39.3852 17.6517 39.4852 17.6433C39.5268 17.6417 39.5668 17.6367 39.6052 17.6333C39.7702 17.62 39.9452 17.5983 40.1435 17.57C40.2552 17.5517 40.3652 17.5333 40.4735 17.5117Z" fill="#003EDE"/>
<path d="M41.1436 11.725C41.057 11.725 40.972 11.6917 40.9053 11.6267L38.6003 9.32166C38.537 9.25833 38.502 9.17333 38.502 9.08333V3.99499C38.502 3.80999 38.652 3.65833 38.8386 3.65833C39.0253 3.65833 39.1753 3.80832 39.1753 3.99499V8.94499L41.382 11.1517C41.5136 11.2833 41.5136 11.495 41.382 11.6267C41.317 11.6917 41.2303 11.725 41.1436 11.725Z" fill="#003EDE"/>
</svg>
