<svg width="50" height="50" viewBox="0 0 50 50" fill="none" xmlns="http://www.w3.org/2000/svg">
<rect width="50" height="50" rx="24" fill="#D3EFFF"/>
<mask id="mask0_1088_2005" style="mask-type:alpha" maskUnits="userSpaceOnUse" x="9" y="9" width="32" height="32">
<rect x="9" y="9" width="32" height="32" fill="#D9D9D9"/>
</mask>
<g mask="url(#mask0_1088_2005)">
<path d="M17.0004 34.6409C16.549 34.6409 16.1627 34.4802 15.8414 34.1589C15.52 33.8376 15.3594 33.4512 15.3594 32.9999C15.3594 32.5486 15.52 32.1622 15.8414 31.8409C16.1627 31.5196 16.549 31.3589 17.0004 31.3589C17.4517 31.3589 17.838 31.5196 18.1594 31.8409C18.4807 32.1622 18.6414 32.5486 18.6414 32.9999C18.6414 33.4512 18.4807 33.8376 18.1594 34.1589C17.838 34.4802 17.4517 34.6409 17.0004 34.6409ZM17.0004 26.6409C16.549 26.6409 16.1627 26.4802 15.8414 26.1589C15.52 25.8376 15.3594 25.4512 15.3594 24.9999C15.3594 24.5486 15.52 24.1622 15.8414 23.8409C16.1627 23.5196 16.549 23.3589 17.0004 23.3589C17.4517 23.3589 17.838 23.5196 18.1594 23.8409C18.4807 24.1622 18.6414 24.5486 18.6414 24.9999C18.6414 25.4512 18.4807 25.8376 18.1594 26.1589C17.838 26.4802 17.4517 26.6409 17.0004 26.6409ZM17.0004 18.6409C16.549 18.6409 16.1627 18.4802 15.8414 18.1589C15.52 17.8376 15.3594 17.4512 15.3594 16.9999C15.3594 16.5486 15.52 16.1622 15.8414 15.8409C16.1627 15.5196 16.549 15.3589 17.0004 15.3589C17.4517 15.3589 17.838 15.5196 18.1594 15.8409C18.4807 16.1622 18.6414 16.5486 18.6414 16.9999C18.6414 17.4512 18.4807 17.8376 18.1594 18.1589C17.838 18.4802 17.4517 18.6409 17.0004 18.6409ZM25.0004 18.6409C24.549 18.6409 24.1627 18.4802 23.8414 18.1589C23.52 17.8376 23.3594 17.4512 23.3594 16.9999C23.3594 16.5486 23.52 16.1622 23.8414 15.8409C24.1627 15.5196 24.549 15.3589 25.0004 15.3589C25.4517 15.3589 25.838 15.5196 26.1594 15.8409C26.4807 16.1622 26.6414 16.5486 26.6414 16.9999C26.6414 17.4512 26.4807 17.8376 26.1594 18.1589C25.838 18.4802 25.4517 18.6409 25.0004 18.6409ZM33.0004 18.6409C32.549 18.6409 32.1627 18.4802 31.8414 18.1589C31.52 17.8376 31.3594 17.4512 31.3594 16.9999C31.3594 16.5486 31.52 16.1622 31.8414 15.8409C32.1627 15.5196 32.549 15.3589 33.0004 15.3589C33.4517 15.3589 33.838 15.5196 34.1594 15.8409C34.4807 16.1622 34.6414 16.5486 34.6414 16.9999C34.6414 17.4512 34.4807 17.8376 34.1594 18.1589C33.838 18.4802 33.4517 18.6409 33.0004 18.6409ZM25.0004 26.6409C24.549 26.6409 24.1627 26.4802 23.8414 26.1589C23.52 25.8376 23.3594 25.4512 23.3594 24.9999C23.3594 24.5486 23.52 24.1622 23.8414 23.8409C24.1627 23.5196 24.549 23.3589 25.0004 23.3589C25.4517 23.3589 25.838 23.5196 26.1594 23.8409C26.4807 24.1622 26.6414 24.5486 26.6414 24.9999C26.6414 25.4512 26.4807 25.8376 26.1594 26.1589C25.838 26.4802 25.4517 26.6409 25.0004 26.6409ZM26.6414 34.6409V31.6949L33.7517 24.6179C33.8833 24.4863 34.019 24.3974 34.159 24.3512C34.299 24.305 34.439 24.2819 34.579 24.2819C34.7317 24.2819 34.8817 24.3106 35.029 24.3679C35.1766 24.4252 35.3106 24.5111 35.431 24.6256L36.6644 25.8846C36.7739 26.0161 36.8573 26.1529 36.9144 26.2949C36.9717 26.4367 37.0004 26.5786 37.0004 26.7206C37.0004 26.8623 36.973 27.0054 36.9184 27.1499C36.8637 27.2943 36.779 27.4323 36.6644 27.5639L29.5877 34.6409H26.6414ZM27.821 33.4616H29.0877L33.7107 28.8306L33.085 28.1972L32.4774 27.5459L27.821 32.1949V33.4616ZM33.085 28.1972L32.4774 27.5459L33.7107 28.8306L33.085 28.1972Z" fill="#1C1B1F"/>
</g>
</svg>
