<svg width="32" height="32" viewBox="0 0 32 32" fill="none" xmlns="http://www.w3.org/2000/svg">
<path d="M2.66602 9.33338L13.5526 16.954C14.4341 17.5711 14.8749 17.8796 15.3544 17.9991C15.7779 18.1047 16.2208 18.1047 16.6443 17.9991C17.1238 17.8796 17.5646 17.5711 18.4461 16.954L29.3327 9.33338M9.06602 26.6667H22.9327C25.1729 26.6667 26.293 26.6667 27.1486 26.2307C27.9013 25.8472 28.5132 25.2353 28.8967 24.4827C29.3327 23.627 29.3327 22.5069 29.3327 20.2667V11.7334C29.3327 9.49317 29.3327 8.37306 28.8967 7.51741C28.5132 6.76476 27.9013 6.15284 27.1486 5.76935C26.293 5.33337 25.1729 5.33337 22.9327 5.33337H9.06602C6.82581 5.33337 5.7057 5.33337 4.85005 5.76935C4.09741 6.15284 3.48548 6.76476 3.10199 7.51741C2.66602 8.37306 2.66602 9.49317 2.66602 11.7334V20.2667C2.66602 22.5069 2.66602 23.627 3.10199 24.4827C3.48548 25.2353 4.09741 25.8472 4.85005 26.2307C5.7057 26.6667 6.82581 26.6667 9.06602 26.6667Z" stroke="white" stroke-linecap="round" stroke-linejoin="round"/>
</svg>
