<svg width="50" height="50" viewBox="0 0 50 50" fill="none" xmlns="http://www.w3.org/2000/svg">
<rect width="50" height="50" rx="24" fill="#D3EFFF"/>
<path d="M24.7287 29.728C26.3796 29.728 27.8033 29.1982 28.9999 28.1387C30.1965 27.0788 30.7949 25.783 30.7949 24.2511C30.7949 22.9498 30.3828 21.8393 29.5587 20.9196C28.7347 19.9999 27.7082 19.54 26.4794 19.54C25.4452 19.54 24.5527 19.8763 23.802 20.5489C23.0512 21.2212 22.6759 22.0382 22.6759 23C22.6759 23.4261 22.7647 23.8375 22.9423 24.2342C23.1199 24.6307 23.3715 25.0056 23.6969 25.3591L25.0761 24.1249C24.8719 23.9744 24.7189 23.809 24.617 23.6289C24.515 23.449 24.4641 23.2542 24.4641 23.0444C24.4641 22.6273 24.6383 22.2427 24.9867 21.8907C25.3351 21.5384 25.8327 21.3622 26.4794 21.3622C27.167 21.3622 27.7619 21.6295 28.2641 22.164C28.766 22.6985 29.0169 23.409 29.0169 24.2956C29.0169 25.2825 28.6198 26.1402 27.8255 26.8684C27.0312 27.5967 26.0139 27.9609 24.7734 27.9609C23.3497 27.9609 22.1249 27.3979 21.0991 26.272C20.0732 25.1461 19.5603 23.7341 19.5603 22.036C19.5603 21.1767 19.7299 20.3487 20.0691 19.552C20.4085 18.7556 20.8991 18.0382 21.5408 17.4L20.2309 16.1316C19.4375 16.9135 18.8219 17.8092 18.3841 18.8187C17.9463 19.8284 17.7274 20.8861 17.7274 21.9916C17.7274 24.1201 18.4014 25.9418 19.7494 27.4564C21.0974 28.9708 22.7572 29.728 24.7287 29.728ZM15.3647 41V34.3129C13.6659 32.7722 12.347 31.0404 11.4082 29.1178C10.4694 27.1954 10 25.2188 10 23.188C10 19.2449 11.3927 15.8945 14.1782 13.1369C16.9637 10.379 20.3395 9 24.3058 9C27.527 9 30.4381 9.97496 33.0391 11.9249C35.6401 13.8748 37.3268 16.3927 38.0993 19.4787L39.9425 26.7778C40.0686 27.2267 39.9872 27.6353 39.6984 28.0036C39.4096 28.3716 39.0244 28.5556 38.5428 28.5556H35.0352V34.5724C35.0352 35.368 34.7538 36.0456 34.1911 36.6053C33.6282 37.1647 32.9465 37.4444 32.1463 37.4444H27.8823V41H26.094V35.6667H32.1463C32.4673 35.6667 32.7311 35.5641 32.9376 35.3591C33.1438 35.1538 33.247 34.8916 33.247 34.5724V26.7778H38.0752L36.3764 19.8889C35.6909 17.1698 34.219 14.9716 31.9608 13.2942C29.7025 11.6166 27.1509 10.7778 24.3058 10.7778C20.8486 10.7778 17.898 11.9834 15.4541 14.3947C13.0102 16.8062 11.7882 19.7305 11.7882 23.1676C11.7882 24.9453 12.1533 26.6284 12.8835 28.2169C13.6137 29.8056 14.6494 31.2222 15.9906 32.4667L17.1529 33.5333V41H15.3647Z" fill="#1C1B1F"/>
</svg>
