<svg width="50" height="50" viewBox="0 0 50 50" fill="none" xmlns="http://www.w3.org/2000/svg">
<rect width="50" height="50" rx="24" fill="#D3EFFF"/>
<mask id="mask0_1088_2012" style="mask-type:alpha" maskUnits="userSpaceOnUse" x="9" y="9" width="32" height="32">
<rect x="9" y="9" width="32" height="32" fill="#D9D9D9"/>
</mask>
<g mask="url(#mask0_1088_2012)">
<path d="M13.4043 32.0771L12.4609 31.1334L19.0659 24.5284C19.7242 23.8873 20.5105 23.5625 21.4249 23.5541C22.3394 23.5454 23.1257 23.8702 23.7839 24.5284L25.3173 26.0617C25.7206 26.4651 26.1954 26.6625 26.7416 26.6541C27.2878 26.6454 27.7626 26.448 28.1659 26.0617L35.2533 19.0001H30.8709V17.6667H37.5376V24.3334H36.2043V19.9514L29.1096 27.0127C28.4514 27.6539 27.6607 27.9787 26.7376 27.9874C25.8147 27.9959 25.0327 27.6795 24.3916 27.0384L22.8249 25.4717C22.4267 25.0735 21.9575 24.8787 21.4173 24.8874C20.877 24.8959 20.4078 25.0906 20.0096 25.4717L13.4043 32.0771Z" fill="#1C1B1F"/>
</g>
</svg>
